<svg width="250" height="241" viewBox="0 0 250 241" fill="none" xmlns="http://www.w3.org/2000/svg">
<path d="M126.483 240.141C194.7 240.141 250 208.212 250 168.827C250 129.441 194.7 97.5131 126.483 97.5131C58.2671 97.5131 2.96681 129.441 2.96681 168.827C2.96681 208.212 58.2671 240.141 126.483 240.141Z" fill="#EBEBEB"/>
<path d="M118.749 227.387L231.222 162.453C232.549 161.687 232.549 160.443 231.222 159.677L139.054 106.458C138.309 106.08 137.485 105.883 136.65 105.883C135.814 105.883 134.991 106.08 134.246 106.458L21.7781 171.42C20.4455 172.186 20.4455 173.43 21.7781 174.196L113.946 227.415C114.693 227.788 115.517 227.979 116.351 227.975C117.185 227.97 118.007 227.768 118.749 227.387V227.387Z" fill="#E0E0E0"/>
<path d="M29.74 152.248C29.368 147.623 27.2526 140.033 21.8724 132.815C16.1202 125.08 9.10212 120.239 3.89405 122.504C-0.958665 124.614 0.87915 131.31 9.23537 137.917C15.0931 142.559 21.1728 148.589 24.4376 155.879L29.74 165.135V152.248Z" fill="#67D90E"/>
<g opacity="0.2">
<path opacity="0.2" d="M29.74 152.248C29.368 147.623 27.2526 140.033 21.8724 132.815C16.1202 125.08 9.10212 120.239 3.89405 122.504C-0.958665 124.614 0.87915 131.31 9.23537 137.917C15.0931 142.559 21.1728 148.589 24.4376 155.879L29.74 165.135V152.248Z" fill="black"/>
</g>
<path d="M29.2737 155.773C29.2058 155.774 29.1394 155.753 29.0837 155.715C29.028 155.676 28.9857 155.621 28.9627 155.557C24.321 142.737 14.61 129.761 6.40927 125.38C6.33274 125.339 6.27538 125.269 6.24945 125.186C6.22351 125.103 6.23105 125.013 6.27046 124.936C6.31281 124.859 6.38337 124.801 6.46728 124.776C6.55118 124.75 6.64186 124.757 6.7202 124.797C15.0487 129.239 24.8762 142.376 29.579 155.335C29.5941 155.375 29.601 155.418 29.5994 155.461C29.5978 155.505 29.5877 155.547 29.5696 155.586C29.5516 155.625 29.5259 155.661 29.4942 155.69C29.4625 155.719 29.4253 155.742 29.3847 155.757C29.3492 155.77 29.3114 155.775 29.2737 155.773Z" fill="white"/>
<path d="M31.7667 174.29C29.0753 176.405 25.8761 177.776 22.4887 178.266C16.6422 179.187 14.0603 176.395 14.0603 176.395C14.0603 176.395 16.3646 170.909 19.6848 169.371C19.6848 169.371 14.0548 170.52 9.54077 173.535C9.54077 173.535 5.97064 173.591 4.54369 168.138C4.54369 168.138 6.65912 164.863 13.755 163.091C13.755 163.091 9.43528 161.981 3.20559 163.591C2.73919 163.774 0.751468 156.734 0.146267 153.486C-0.458934 150.238 0.851411 150.266 3.38326 149.599C5.91511 148.933 14.5434 148.489 16.1536 149.888C17.7637 151.287 18.5466 156.045 18.5466 156.045C18.8371 154.146 18.8912 152.217 18.7076 150.304C20.8622 150.197 23.0194 150.456 25.0872 151.071C27.9356 152.064 27.7523 153.453 27.7523 155.512C27.7637 157.599 27.4776 159.676 26.9028 161.681C26.9028 161.681 28.8683 159.977 28.935 153.708C28.935 153.708 32.7827 157 34.3263 159.816C35.8698 162.631 35.4756 170.071 31.7667 174.29Z" fill="#67D90E"/>
<path d="M31.7667 174.618C31.7057 174.614 31.6467 174.595 31.5945 174.563C31.5424 174.531 31.4986 174.487 31.4668 174.435C24.7375 164.751 9.2132 153.247 2.93354 152.026C2.84838 152.007 2.77372 151.956 2.72511 151.884C2.6765 151.811 2.65768 151.723 2.67259 151.637C2.69006 151.552 2.73981 151.478 2.81131 151.429C2.88281 151.38 2.97045 151.361 3.05569 151.376C9.44085 152.62 25.4259 163.902 32.0609 174.14C32.0822 174.179 32.0951 174.222 32.0987 174.265C32.1023 174.309 32.0966 174.353 32.0819 174.395C32.0672 174.436 32.0439 174.474 32.0135 174.506C31.9831 174.538 31.9463 174.563 31.9055 174.579C31.8628 174.603 31.8153 174.616 31.7667 174.618V174.618Z" fill="white"/>
<path d="M214.882 147.711L210.046 144.935C210.046 144.935 207.725 132.165 209.463 121.16C211.9 105.714 222.416 100.384 226.236 101.922C230.056 103.46 230.956 108.029 224.054 116.957C219.984 122.243 214.765 133.375 214.882 147.711Z" fill="#67D90E"/>
<g opacity="0.2">
<path opacity="0.2" d="M214.882 147.711L210.046 144.935C210.046 144.935 207.725 132.165 209.463 121.16C211.9 105.714 222.416 100.384 226.236 101.922C230.056 103.46 230.956 108.029 224.054 116.957C219.984 122.243 214.765 133.375 214.882 147.711Z" fill="black"/>
</g>
<path d="M213.127 141.576H213.177C213.267 141.562 213.348 141.514 213.403 141.442C213.458 141.369 213.482 141.278 213.471 141.187C211.472 126.724 217.286 110.877 223.821 104.492C223.886 104.428 223.924 104.341 223.925 104.249C223.926 104.158 223.89 104.069 223.826 104.004C223.762 103.938 223.675 103.901 223.583 103.9C223.492 103.899 223.403 103.934 223.338 103.998C216.675 110.5 210.756 126.602 212.788 141.282C212.799 141.364 212.84 141.439 212.902 141.493C212.964 141.547 213.044 141.577 213.127 141.576V141.576Z" fill="white"/>
<path d="M228.302 155.462C229.062 155.901 230.639 154.946 231.239 154.541C232.272 153.838 233.107 152.882 233.665 151.765C234.29 150.493 234.503 149.059 234.276 147.661C234.151 146.923 233.977 146.194 233.754 145.479C233.554 144.774 233.349 144.069 233.143 143.358C232.897 142.676 232.793 141.95 232.838 141.226C233.021 139.777 234.309 138.761 235.475 137.895C236.769 136.929 238.113 135.674 238.107 133.903C238.014 132.55 237.472 131.266 236.569 130.255C235.736 129.195 234.748 128.262 233.993 127.151C233.399 126.373 233.089 125.415 233.115 124.436C233.198 123.838 233.398 123.263 233.704 122.743C234.32 121.632 235.137 120.566 235.559 119.35C235.98 118.134 235.925 116.613 234.97 115.736C234.187 115.019 233.027 114.92 231.972 114.992C230.986 115.115 230.039 115.45 229.196 115.974C226.419 117.512 224.848 120.794 221.905 121.977C220.795 122.437 219.529 122.532 218.352 122.848C217.175 123.165 215.964 123.764 215.415 124.858C214.338 127.012 216.342 129.666 215.581 131.954C214.909 133.975 212.944 134.73 211.839 136.574C211.389 137.379 211.208 138.307 211.323 139.222C211.416 140.771 211.793 142.289 212.433 143.703C213.154 145.105 213.976 146.452 214.893 147.734C214.926 147.756 228.179 155.396 228.302 155.462Z" fill="#67D90E"/>
<path d="M220.451 151.282C220.497 151.28 220.542 151.27 220.584 151.251C220.626 151.232 220.663 151.205 220.695 151.171C220.726 151.138 220.751 151.098 220.767 151.055C220.783 151.012 220.791 150.967 220.789 150.921C220.234 137.234 226.669 122.121 231.339 117.729C231.406 117.666 231.445 117.58 231.448 117.488C231.451 117.397 231.418 117.307 231.355 117.24C231.293 117.173 231.206 117.134 231.115 117.131C231.023 117.128 230.934 117.161 230.867 117.224C226.081 121.704 219.501 137.068 220.073 150.948C220.075 150.995 220.087 151.041 220.107 151.084C220.127 151.126 220.156 151.164 220.191 151.195C220.226 151.226 220.267 151.25 220.312 151.265C220.357 151.28 220.404 151.285 220.451 151.282V151.282Z" fill="white"/>
<path d="M222.499 135.108C222.532 135.113 222.566 135.113 222.599 135.108C225.841 134.206 229.172 133.662 232.532 133.486C232.623 133.481 232.708 133.44 232.769 133.372C232.831 133.305 232.863 133.217 232.86 133.126C232.86 133.08 232.851 133.034 232.832 132.992C232.814 132.95 232.787 132.912 232.753 132.881C232.719 132.85 232.678 132.827 232.635 132.813C232.591 132.798 232.545 132.793 232.499 132.798C229.081 132.971 225.692 133.518 222.394 134.43C222.307 134.457 222.235 134.517 222.192 134.597C222.15 134.677 222.14 134.771 222.166 134.858C222.186 134.931 222.23 134.995 222.29 135.04C222.35 135.085 222.424 135.109 222.499 135.108V135.108Z" fill="white"/>
<path d="M31.1503 172.458C31.22 173.409 31.5127 174.331 32.0046 175.148C32.4965 175.965 33.174 176.654 33.982 177.161L113.38 222.99C114.258 223.436 115.229 223.668 116.214 223.668C117.2 223.668 118.171 223.436 119.049 222.99L227.641 160.282C228.496 159.83 229.212 159.153 229.712 158.324C230.211 157.496 230.475 156.547 230.475 155.579C230.475 154.612 230.211 153.662 229.712 152.834C229.212 152.005 228.496 151.328 227.641 150.876L148.243 105.042C147.365 104.598 146.395 104.367 145.411 104.367C144.428 104.367 143.458 104.598 142.58 105.042L33.982 167.75C33.1732 168.257 32.4954 168.947 32.0034 169.765C31.5114 170.583 31.2192 171.506 31.1503 172.458V172.458Z" fill="#37474F"/>
<path d="M116.195 217.537V223.645C115.209 223.667 114.233 223.433 113.363 222.967L33.9653 177.139C33.1347 176.701 32.4352 176.05 31.9383 175.254C31.4414 174.457 31.165 173.543 31.1374 172.604C31.1097 171.666 31.3317 170.736 31.7808 169.912C32.2299 169.087 32.8898 168.397 33.6933 167.911C32.4218 168.821 32.5217 170.132 33.982 171.003L113.38 216.832C114.243 217.302 115.212 217.545 116.195 217.537V217.537Z" fill="#263238"/>
<path d="M28.4908 167.855C27.7027 167.317 27.0516 166.602 26.5897 165.767C26.1279 164.932 25.8681 164 25.8312 163.047V68.319C25.8855 67.3362 26.1701 66.3799 26.662 65.5273C27.1538 64.6748 27.8393 63.9497 28.6629 63.4108L137.277 0.703037C138.121 0.258794 139.057 0.0183665 140.011 0.00101145C140.964 -0.0163436 141.909 0.189856 142.768 0.603095C143.556 1.14109 144.208 1.85626 144.669 2.69127C145.131 3.52627 145.391 4.45788 145.428 5.41139V100.139C145.374 101.121 145.09 102.077 144.598 102.929C144.106 103.781 143.42 104.505 142.596 105.042L33.982 167.75C33.1385 168.195 32.2025 168.436 31.2489 168.455C30.2954 168.473 29.3508 168.268 28.4908 167.855V167.855Z" fill="#455A64"/>
<path d="M33.6489 167.911C32.8359 168.276 31.9529 168.458 31.0619 168.446C30.1708 168.433 29.2933 168.226 28.4908 167.839C27.7023 167.303 27.0511 166.589 26.59 165.754C26.1289 164.92 25.8709 163.989 25.8368 163.036V68.319C25.8693 67.3379 26.1542 66.3817 26.6641 65.5429L31.9777 68.6022C31.4708 69.4427 31.1843 70.3976 31.1448 71.3783V166.117C31.1448 167.794 32.2386 168.544 33.6489 167.911Z" fill="#263238"/>
<path d="M31.1503 71.3895V166.117C31.1503 167.922 32.4163 168.655 33.982 167.75L142.585 105.042C143.409 104.505 144.095 103.781 144.587 102.929C145.079 102.077 145.363 101.121 145.417 100.139V5.41139C145.417 3.60134 144.145 2.87398 142.585 3.77346L33.982 66.4812C33.1571 67.0189 32.4708 67.7436 31.9787 68.5964C31.4867 69.4493 31.2029 70.4062 31.1503 71.3895V71.3895Z" fill="#37474F"/>
<path d="M33.982 171.026L113.38 216.854C114.259 217.298 115.23 217.529 116.214 217.529C117.199 217.529 118.17 217.298 119.049 216.854L227.641 154.147C229.201 153.242 229.201 151.776 227.641 150.876L148.243 105.042C147.365 104.598 146.395 104.367 145.411 104.367C144.428 104.367 143.458 104.598 142.58 105.042L33.982 167.75C32.4163 168.655 32.4163 170.132 33.982 171.026Z" fill="#455A64"/>
<path d="M35.5034 71.7392L140.22 11.2968C141.158 10.7416 141.919 11.1913 141.919 12.2796V94.2816C141.887 94.871 141.716 95.4446 141.421 95.9559C141.126 96.4671 140.714 96.9017 140.22 97.2243L35.5034 157.667C34.565 158.222 33.8044 157.767 33.8044 156.684V74.6819C33.8366 74.0925 34.0072 73.5189 34.3024 73.0076C34.5975 72.4964 35.009 72.0619 35.5034 71.7392V71.7392Z" fill="#D0BB00"/>
<path opacity="0.9" d="M35.5034 71.7392L140.22 11.2968C141.158 10.7416 141.919 11.1913 141.919 12.2796V94.2816C141.887 94.871 141.716 95.4446 141.421 95.9559C141.126 96.4671 140.714 96.9017 140.22 97.2243L35.5034 157.667C34.565 158.222 33.8044 157.767 33.8044 156.684V74.6819C33.8366 74.0925 34.0072 73.5189 34.3024 73.0076C34.5975 72.4964 35.009 72.0619 35.5034 71.7392V71.7392Z" fill="white"/>
<path d="M43.1988 168.571L144.012 110.367C144.45 110.142 144.935 110.025 145.428 110.025C145.92 110.025 146.406 110.142 146.844 110.367L152.002 113.343C152.785 113.792 152.785 114.525 152.002 114.975L51.1719 173.174C50.7319 173.396 50.246 173.511 49.7533 173.511C49.2606 173.511 48.7747 173.396 48.3347 173.174L43.1988 170.204C42.4104 169.754 42.4104 169.021 43.1988 168.571Z" fill="#37474F"/>
<path d="M56.4855 176.239L156.549 118.495C156.988 118.274 157.473 118.158 157.965 118.158C158.457 118.158 158.942 118.274 159.381 118.495L191.096 136.818C191.879 137.273 191.879 138.006 191.096 138.484L91.1541 196.161C90.7141 196.383 90.2282 196.498 89.7355 196.498C89.2428 196.498 88.757 196.383 88.3169 196.161L56.4911 177.922C55.7027 177.422 55.7027 176.695 56.4855 176.239Z" fill="#263238"/>
<path d="M146.855 144.225L150.014 142.403C150.147 142.326 150.136 142.192 150.014 142.109L146.366 140.005C146.288 139.965 146.201 139.944 146.114 139.944C146.026 139.944 145.939 139.965 145.861 140.005L142.685 141.815C142.552 141.893 142.557 142.02 142.685 142.104L146.333 144.214C146.412 144.258 146.501 144.282 146.592 144.284C146.683 144.286 146.774 144.266 146.855 144.225V144.225ZM140.625 137.007L137.471 138.828C137.338 138.905 137.344 139.033 137.471 139.116L141.119 141.226C141.197 141.266 141.284 141.287 141.372 141.287C141.46 141.287 141.546 141.266 141.625 141.226L144.784 139.4C144.917 139.322 144.906 139.194 144.784 139.111L141.136 137.001C141.058 136.958 140.971 136.933 140.883 136.93C140.794 136.928 140.705 136.946 140.625 136.984V137.007ZM130.431 142.892L125.084 145.974C124.951 146.051 124.962 146.185 125.084 146.268L128.732 148.372C128.81 148.412 128.897 148.433 128.985 148.433C129.073 148.433 129.159 148.412 129.237 148.372L134.579 145.291C134.712 145.213 134.706 145.08 134.579 144.996L130.925 142.881C130.849 142.841 130.765 142.819 130.679 142.817C130.594 142.815 130.509 142.833 130.431 142.87V142.892ZM136.011 139.666L132.857 141.493C132.724 141.565 132.73 141.698 132.857 141.782L136.505 143.886C136.584 143.926 136.67 143.947 136.758 143.947C136.846 143.947 136.932 143.926 137.011 143.886L140.17 142.065C140.303 141.987 140.292 141.859 140.17 141.776L136.522 139.666C136.445 139.622 136.358 139.597 136.269 139.593C136.18 139.589 136.092 139.606 136.011 139.644V139.666ZM123.63 146.812L120.476 148.633C120.337 148.711 120.348 148.844 120.476 148.927L124.124 151.032C124.202 151.072 124.288 151.093 124.376 151.093C124.464 151.093 124.551 151.072 124.629 151.032L127.783 149.211C127.916 149.133 127.91 149 127.783 148.916L124.135 146.812C124.057 146.772 123.97 146.751 123.882 146.751C123.794 146.751 123.708 146.772 123.63 146.812V146.812ZM119.016 149.477L115.862 151.298C115.729 151.376 115.734 151.504 115.862 151.587L119.51 153.697C119.588 153.737 119.675 153.758 119.762 153.758C119.85 153.758 119.937 153.737 120.015 153.697L123.169 151.87C123.307 151.792 123.296 151.665 123.169 151.581L119.521 149.477C119.444 149.435 119.358 149.411 119.27 149.408C119.182 149.405 119.095 149.423 119.016 149.46V149.477ZM133.374 158.044L136.528 156.223C136.666 156.145 136.655 156.012 136.528 155.929L132.88 153.825C132.801 153.785 132.715 153.764 132.627 153.764C132.539 153.764 132.453 153.785 132.374 153.825L129.221 155.646C129.087 155.723 129.093 155.857 129.221 155.94L132.869 158.044C132.948 158.082 133.035 158.1 133.123 158.097C133.211 158.094 133.297 158.07 133.374 158.028V158.044ZM128.76 160.693L131.919 158.872C132.052 158.794 132.041 158.661 131.919 158.577L128.271 156.473C128.193 156.433 128.106 156.412 128.019 156.412C127.931 156.412 127.844 156.433 127.766 156.473L124.612 158.294C124.479 158.372 124.485 158.5 124.612 158.583L128.26 160.693C128.338 160.732 128.423 160.752 128.51 160.752C128.597 160.752 128.682 160.732 128.76 160.693V160.693ZM124.146 163.358L127.305 161.531C127.438 161.453 127.427 161.326 127.305 161.242L123.657 159.133C123.579 159.093 123.492 159.072 123.405 159.072C123.317 159.072 123.23 159.093 123.152 159.133L119.998 160.954C119.865 161.031 119.871 161.159 119.998 161.242L123.646 163.352C123.723 163.392 123.809 163.414 123.895 163.414C123.982 163.415 124.068 163.396 124.146 163.358V163.358ZM119.532 166.017L122.691 164.196C122.824 164.119 122.813 163.991 122.691 163.908L119.038 161.798C118.96 161.758 118.873 161.737 118.785 161.737C118.697 161.737 118.611 161.758 118.532 161.798L115.379 163.608C115.246 163.685 115.251 163.819 115.379 163.902L119.032 166.006C119.109 166.047 119.194 166.069 119.281 166.071C119.368 166.073 119.454 166.055 119.532 166.017V166.017ZM142.241 146.884L145.4 145.063C145.533 144.985 145.522 144.858 145.4 144.774L141.747 142.664C141.669 142.625 141.584 142.605 141.497 142.605C141.41 142.605 141.324 142.625 141.247 142.664L138.088 144.491C137.954 144.569 137.96 144.697 138.088 144.78L141.741 146.89C141.819 146.928 141.905 146.947 141.992 146.946C142.078 146.945 142.164 146.924 142.241 146.884V146.884ZM137.988 155.363L145.028 151.298C145.161 151.221 145.156 151.093 145.028 151.01L136.144 145.89C136.067 145.851 135.981 145.831 135.895 145.831C135.808 145.831 135.722 145.851 135.645 145.89L132.002 147.995C131.869 148.072 131.875 148.2 132.002 148.283L136.694 150.993C136.838 151.076 136.844 151.209 136.694 151.287L133.785 152.953C133.646 153.031 133.657 153.158 133.785 153.242L137.433 155.346C137.515 155.397 137.61 155.426 137.708 155.429C137.805 155.432 137.902 155.409 137.988 155.363V155.363ZM114.402 152.12L111.248 153.947C111.115 154.024 111.12 154.152 111.248 154.235L114.896 156.345C114.974 156.385 115.061 156.406 115.148 156.406C115.236 156.406 115.323 156.385 115.401 156.345L118.56 154.524C118.694 154.446 118.682 154.319 118.56 154.235L114.912 152.126C114.834 152.084 114.747 152.061 114.658 152.061C114.569 152.06 114.481 152.08 114.402 152.12V152.12ZM109.788 154.785L106.634 156.606C106.501 156.684 106.506 156.817 106.634 156.901L110.282 159.005C110.36 159.045 110.447 159.066 110.534 159.066C110.622 159.066 110.709 159.045 110.787 159.005L113.946 157.184C114.08 157.106 114.068 156.973 113.946 156.895L110.298 154.785C110.22 154.744 110.132 154.723 110.043 154.723C109.954 154.723 109.867 154.744 109.788 154.785V154.785ZM86.7344 184.651C86.8127 184.691 86.8992 184.712 86.9871 184.712C87.0749 184.712 87.1615 184.691 87.2397 184.651L90.399 182.83C90.5322 182.752 90.5211 182.624 90.399 182.541L86.7511 180.431C86.6729 180.391 86.5863 180.37 86.4985 180.37C86.4106 180.37 86.3241 180.391 86.2458 180.431L83.0921 182.252C82.9589 182.33 82.9644 182.463 83.0921 182.547L86.7344 184.651ZM72.8814 176.095L69.7277 177.905C69.5945 177.983 69.6 178.11 69.7277 178.194L73.3756 180.303C73.4538 180.343 73.5404 180.364 73.6282 180.364C73.7161 180.364 73.8026 180.343 73.8809 180.303L77.0346 178.482C77.1734 178.405 77.1623 178.271 77.0346 178.188L73.3867 176.084C73.3076 176.045 73.2206 176.027 73.1327 176.028C73.0449 176.03 72.9588 176.053 72.8814 176.095V176.095ZM80.3104 182.347C80.3879 182.386 80.4735 182.406 80.5603 182.406C80.6471 182.406 80.7326 182.386 80.8101 182.347L83.9694 180.526C84.1026 180.448 84.0915 180.32 83.9694 180.237L80.3215 178.127C80.2433 178.087 80.1567 178.066 80.0689 178.066C79.9811 178.066 79.8945 178.087 79.8163 178.127L76.6626 179.954C76.5293 180.031 76.5349 180.159 76.6626 180.242L80.3104 182.347ZM94.8797 186.278L98.0389 184.457C98.1722 184.379 98.1666 184.246 98.0389 184.162L94.3855 182.058C94.308 182.019 94.2225 181.999 94.1357 181.999C94.0489 181.999 93.9633 182.019 93.8858 182.058L90.7266 183.879C90.5933 183.957 90.5989 184.09 90.7266 184.173L94.38 186.278C94.4579 186.316 94.5437 186.335 94.6305 186.334C94.7173 186.333 94.8026 186.312 94.8797 186.272V186.278ZM89.766 188.932C89.8435 188.971 89.9291 188.991 90.0159 188.991C90.1026 188.991 90.1882 188.971 90.2657 188.932L93.425 187.105C93.5582 187.027 93.5527 186.9 93.425 186.816L89.7716 184.712C89.6941 184.673 89.6085 184.653 89.5217 184.653C89.4349 184.653 89.3493 184.673 89.2718 184.712L86.1126 186.533C85.9793 186.611 85.9849 186.739 86.1126 186.822L89.766 188.932ZM77.4954 173.435L74.3417 175.256C74.2029 175.334 74.214 175.467 74.3417 175.551L77.9896 177.655C78.0678 177.695 78.1544 177.716 78.2422 177.716C78.33 177.716 78.4166 177.695 78.4948 177.655L81.6485 175.834C81.7873 175.756 81.7762 175.628 81.6485 175.545L78.0007 173.435C77.9229 173.394 77.8365 173.373 77.7487 173.372C77.6609 173.371 77.5741 173.391 77.4954 173.43V173.435ZM100.565 160.11L97.406 161.931C97.2727 162.009 97.2783 162.136 97.406 162.22L101.059 164.33C101.137 164.369 101.222 164.389 101.309 164.389C101.396 164.389 101.482 164.369 101.559 164.33L104.718 162.503C104.852 162.425 104.846 162.297 104.718 162.214L101.065 160.104C100.985 160.07 100.898 160.056 100.811 160.061C100.724 160.067 100.64 160.093 100.565 160.138V160.11ZM82.1094 170.759L78.9501 172.586C78.8169 172.664 78.828 172.791 78.9501 172.875L82.598 174.984C82.6762 175.024 82.7628 175.045 82.8506 175.045C82.9384 175.045 83.025 175.024 83.1032 174.984L86.2569 173.163C86.3902 173.085 86.3847 172.958 86.2569 172.875L82.6091 170.765C82.5316 170.726 82.446 170.705 82.3592 170.705C82.2724 170.705 82.1869 170.726 82.1094 170.765V170.759ZM105.174 157.434L102.02 159.255C101.887 159.332 101.892 159.46 102.02 159.543L105.673 161.653C105.751 161.692 105.836 161.713 105.923 161.713C106.01 161.713 106.096 161.692 106.173 161.653L109.332 159.832C109.466 159.754 109.454 159.621 109.332 159.538L105.679 157.434C105.599 157.396 105.512 157.378 105.424 157.381C105.336 157.384 105.251 157.408 105.174 157.45V157.434ZM95.9457 162.775L92.792 164.579C92.6588 164.657 92.6643 164.79 92.792 164.874L96.4454 166.978C96.5236 167.018 96.6102 167.039 96.6981 167.039C96.7859 167.039 96.8725 167.018 96.9507 166.978L100.104 165.157C100.238 165.079 100.232 164.951 100.104 164.868L96.451 162.758C96.3715 162.721 96.2842 162.703 96.1963 162.706C96.1085 162.709 96.0226 162.732 95.9457 162.775V162.775ZM91.3318 165.44L88.1725 167.261C88.0392 167.339 88.0503 167.472 88.1725 167.555L91.8204 169.66C91.8986 169.7 91.9852 169.721 92.073 169.721C92.1608 169.721 92.2474 169.7 92.3256 169.66L95.4793 167.839C95.6126 167.761 95.607 167.628 95.4793 167.544L91.8315 165.44C91.7547 165.402 91.6701 165.382 91.5844 165.382C91.4987 165.382 91.4141 165.402 91.3373 165.44H91.3318ZM86.7178 168.105L83.5585 169.926C83.4253 170.004 83.4364 170.132 83.5585 170.215L87.2064 172.325C87.2846 172.365 87.3712 172.386 87.459 172.386C87.5469 172.386 87.6334 172.365 87.7117 172.325L90.8654 170.498C90.9986 170.426 90.9931 170.293 90.8654 170.209L87.2175 168.105C87.1407 168.067 87.0562 168.047 86.9704 168.047C86.8847 168.047 86.8001 168.067 86.7233 168.105H86.7178ZM110.298 171.348L113.458 169.521C113.591 169.449 113.585 169.315 113.458 169.232L109.804 167.128C109.727 167.089 109.641 167.068 109.554 167.068C109.468 167.068 109.382 167.089 109.305 167.128L106.145 168.949C106.012 169.027 106.018 169.154 106.145 169.238L109.799 171.348C109.877 171.388 109.964 171.408 110.051 171.408C110.139 171.408 110.226 171.388 110.304 171.348H110.298ZM150.83 131.093L147.671 132.931C147.532 133.009 147.543 133.142 147.671 133.225L151.319 135.33C151.397 135.37 151.484 135.391 151.571 135.391C151.659 135.391 151.746 135.37 151.824 135.33L154.978 133.509C155.111 133.431 155.106 133.303 154.978 133.22L151.33 131.11C151.253 131.067 151.167 131.044 151.079 131.041C150.992 131.038 150.904 131.056 150.825 131.093H150.83ZM145.245 134.319L142.091 136.14C141.952 136.218 141.963 136.346 142.091 136.429L145.739 138.539C145.817 138.579 145.904 138.6 145.991 138.6C146.079 138.6 146.166 138.579 146.244 138.539L149.398 136.718C149.537 136.64 149.525 136.507 149.398 136.424L145.75 134.319C145.671 134.278 145.583 134.257 145.494 134.257C145.406 134.257 145.318 134.278 145.239 134.319H145.245ZM155.444 128.428L152.285 130.255C152.152 130.333 152.163 130.46 152.285 130.544L155.933 132.654C156.011 132.694 156.098 132.714 156.185 132.714C156.273 132.714 156.36 132.694 156.438 132.654L159.592 130.832C159.725 130.755 159.72 130.627 159.592 130.544L155.944 128.434C155.866 128.393 155.78 128.371 155.692 128.37C155.604 128.369 155.517 128.389 155.439 128.428H155.444ZM131.569 153.053L134.729 151.232C134.862 151.154 134.851 151.026 134.729 150.943L131.081 148.833C131.002 148.793 130.916 148.772 130.828 148.772C130.74 148.772 130.654 148.793 130.575 148.833L127.422 150.66C127.288 150.737 127.294 150.865 127.422 150.948L131.07 153.058C131.146 153.095 131.23 153.113 131.315 153.112C131.399 153.111 131.483 153.091 131.558 153.053H131.569ZM160.563 125.78C160.486 125.741 160.4 125.72 160.314 125.72C160.227 125.72 160.141 125.741 160.064 125.78L156.904 127.601C156.771 127.679 156.782 127.806 156.904 127.89L160.552 130C160.631 130.04 160.717 130.06 160.805 130.06C160.893 130.06 160.979 130.04 161.058 130L164.211 128.173C164.345 128.095 164.339 127.967 164.211 127.884L160.563 125.78ZM114.929 168.683L118.088 166.861C118.222 166.784 118.216 166.65 118.088 166.567L114.435 164.463C114.357 164.424 114.272 164.403 114.185 164.403C114.098 164.403 114.013 164.424 113.935 164.463L110.776 166.284C110.643 166.362 110.648 166.495 110.776 166.573L114.429 168.683C114.505 168.72 114.589 168.739 114.674 168.739C114.758 168.739 114.842 168.72 114.918 168.683H114.929ZM171.507 136.018L174.661 134.197C174.794 134.119 174.788 133.986 174.661 133.903L170.985 131.821C170.907 131.781 170.82 131.76 170.733 131.76C170.645 131.76 170.558 131.781 170.48 131.821L167.321 133.642C167.187 133.72 167.198 133.853 167.321 133.936L170.968 136.041C171.051 136.081 171.143 136.1 171.235 136.096C171.327 136.092 171.417 136.065 171.496 136.018H171.507ZM161.679 135.674L164.833 133.847C164.966 133.77 164.961 133.642 164.833 133.559L161.185 131.449C161.107 131.409 161.021 131.388 160.933 131.388C160.845 131.388 160.758 131.409 160.68 131.449L157.526 133.27C157.388 133.348 157.399 133.475 157.526 133.559L161.174 135.668C161.251 135.708 161.335 135.728 161.421 135.729C161.506 135.73 161.591 135.711 161.668 135.674H161.679ZM165.783 128.789C165.704 128.749 165.618 128.728 165.53 128.728C165.442 128.728 165.356 128.749 165.277 128.789L162.118 130.61C161.985 130.688 161.996 130.821 162.118 130.899L165.766 133.009C165.844 133.049 165.931 133.07 166.019 133.07C166.106 133.07 166.193 133.049 166.271 133.009L169.425 131.188C169.558 131.11 169.553 130.977 169.425 130.894L165.783 128.789ZM166.754 128.234L175.638 133.348C175.716 133.388 175.803 133.408 175.891 133.408C175.978 133.408 176.065 133.388 176.143 133.348L179.297 131.526C179.43 131.449 179.425 131.321 179.297 131.238L170.413 126.119C170.336 126.079 170.25 126.059 170.163 126.059C170.077 126.059 169.991 126.079 169.914 126.119L166.721 127.934C166.588 128.012 166.599 128.145 166.743 128.228L166.754 128.234ZM156.049 134.108L152.896 135.935C152.757 136.007 152.768 136.14 152.896 136.224L156.544 138.328C156.622 138.368 156.708 138.389 156.796 138.389C156.884 138.389 156.971 138.368 157.049 138.328L160.203 136.507C160.341 136.429 160.33 136.301 160.203 136.218L156.555 134.108C156.476 134.066 156.387 134.043 156.297 134.042C156.207 134.041 156.118 134.062 156.038 134.103L156.049 134.108ZM121.32 154.152L118.155 155.973C118.022 156.051 118.027 156.179 118.155 156.262L121.808 158.372C121.886 158.411 121.971 158.431 122.058 158.431C122.145 158.431 122.231 158.411 122.308 158.372L125.467 156.551C125.601 156.473 125.589 156.34 125.467 156.256L121.814 154.152C121.737 154.114 121.653 154.094 121.567 154.094C121.481 154.094 121.397 154.114 121.32 154.152V154.152ZM166.377 138.672C166.455 138.712 166.542 138.733 166.629 138.733C166.717 138.733 166.804 138.712 166.882 138.672L170.036 136.851C170.175 136.773 170.163 136.64 170.036 136.557L166.388 134.453C166.31 134.413 166.223 134.392 166.135 134.392C166.047 134.392 165.961 134.413 165.883 134.453L162.712 136.263C162.573 136.34 162.585 136.468 162.712 136.551L166.377 138.672ZM125.928 151.487L122.774 153.308C122.641 153.386 122.647 153.519 122.774 153.602L126.428 155.707C126.505 155.746 126.591 155.766 126.678 155.766C126.765 155.766 126.85 155.746 126.928 155.707L130.087 153.886C130.22 153.808 130.209 153.675 130.087 153.597L126.439 151.487C126.36 151.446 126.272 151.425 126.184 151.425C126.095 151.425 126.007 151.446 125.928 151.487V151.487ZM91.3484 181.991C91.4266 182.031 91.5132 182.052 91.601 182.052C91.6889 182.052 91.7755 182.031 91.8537 181.991L95.0074 180.165C95.1462 180.087 95.1351 179.959 95.0074 179.876L91.3595 177.766C91.2813 177.726 91.1947 177.705 91.1069 177.705C91.0191 177.705 90.9325 177.726 90.8543 177.766L87.6839 179.571C87.5451 179.648 87.5562 179.776 87.6839 179.859L91.3484 181.991ZM84.408 175.462L81.2543 177.283C81.1211 177.361 81.1266 177.488 81.2543 177.572L84.9022 179.682C84.9804 179.722 85.067 179.742 85.1548 179.742C85.2426 179.742 85.3292 179.722 85.4074 179.682L88.5667 177.855C88.7 177.777 88.6889 177.649 88.5667 177.566L84.9188 175.456C84.8395 175.416 84.7517 175.396 84.6628 175.397C84.5739 175.398 84.4865 175.42 84.408 175.462ZM96.4676 179.348L99.6213 177.527C99.7546 177.45 99.749 177.316 99.6213 177.233L95.9457 175.129C95.8675 175.089 95.7809 175.068 95.6931 175.068C95.6053 175.068 95.5187 175.089 95.4405 175.129L92.2812 176.95C92.1479 177.028 92.159 177.155 92.2812 177.239L95.9291 179.348C96.0124 179.393 96.1056 179.415 96.1998 179.413C96.294 179.411 96.3862 179.385 96.4676 179.337V179.348ZM101.082 176.683L104.235 174.862C104.369 174.784 104.363 174.651 104.235 174.574L100.587 172.464C100.509 172.424 100.423 172.403 100.335 172.403C100.247 172.403 100.16 172.424 100.082 172.464L96.9229 174.285C96.7897 174.363 96.8008 174.496 96.9229 174.579L100.571 176.683C100.651 176.723 100.739 176.742 100.828 176.74C100.916 176.738 101.004 176.715 101.082 176.672V176.683ZM105.696 174.018L108.849 172.197C108.983 172.119 108.977 171.992 108.849 171.908L105.196 169.799C105.118 169.759 105.033 169.739 104.946 169.739C104.859 169.739 104.774 169.759 104.696 169.799L101.498 171.603C101.365 171.681 101.376 171.808 101.498 171.892L105.146 173.996C105.228 174.047 105.321 174.076 105.418 174.08C105.514 174.084 105.61 174.063 105.696 174.018V174.018ZM89.0387 172.808L85.8849 174.629C85.7517 174.707 85.7572 174.834 85.8849 174.918L89.5328 177.028C89.611 177.068 89.6976 177.088 89.7854 177.088C89.8733 177.088 89.9599 177.068 90.0381 177.028L93.1973 175.206C93.3306 175.129 93.3195 174.995 93.1973 174.912L89.5495 172.808C89.4694 172.762 89.3792 172.738 89.2871 172.736C89.1951 172.734 89.1039 172.755 89.022 172.797L89.0387 172.808ZM93.6526 170.143L90.4989 171.964C90.3601 172.042 90.3712 172.175 90.4989 172.258L94.1468 174.363C94.225 174.402 94.3116 174.423 94.3994 174.423C94.4872 174.423 94.5738 174.402 94.652 174.363L97.8057 172.541C97.9446 172.464 97.9335 172.336 97.8057 172.253L94.1579 170.143C94.0785 170.098 93.9893 170.074 93.8983 170.072C93.8073 170.07 93.7172 170.091 93.636 170.132L93.6526 170.143ZM112.108 159.488L108.949 161.309C108.816 161.387 108.822 161.52 108.949 161.603L112.603 163.708C112.68 163.747 112.766 163.767 112.852 163.767C112.939 163.767 113.025 163.747 113.102 163.708L116.262 161.886C116.395 161.809 116.389 161.681 116.262 161.598L112.608 159.488C112.529 159.444 112.441 159.421 112.351 159.419C112.261 159.417 112.172 159.437 112.092 159.477L112.108 159.488ZM107.495 162.153L104.335 163.974C104.202 164.052 104.213 164.185 104.335 164.268L107.983 166.373C108.061 166.413 108.148 166.434 108.236 166.434C108.324 166.434 108.41 166.413 108.488 166.373L111.642 164.552C111.775 164.474 111.77 164.341 111.642 164.257L107.989 162.153C107.911 162.11 107.824 162.087 107.735 162.085C107.646 162.083 107.558 162.103 107.478 162.142L107.495 162.153ZM116.706 156.806L113.547 158.627C113.413 158.705 113.419 158.833 113.547 158.916L117.2 161.026C117.277 161.065 117.363 161.085 117.45 161.085C117.537 161.085 117.622 161.065 117.7 161.026L120.859 159.199C120.992 159.121 120.987 158.994 120.859 158.91L117.205 156.801C117.128 156.762 117.042 156.743 116.955 156.744C116.868 156.745 116.783 156.766 116.706 156.806V156.806ZM98.2499 167.467L95.0962 169.293C94.9574 169.371 94.9685 169.499 95.0962 169.582L98.7441 171.692C98.8223 171.732 98.9089 171.753 98.9967 171.753C99.0845 171.753 99.1711 171.732 99.2493 171.692L102.403 169.871C102.536 169.793 102.531 169.665 102.403 169.582L98.7552 167.472C98.6774 167.431 98.5911 167.409 98.5032 167.409C98.4154 167.408 98.3286 167.427 98.2499 167.467V167.467ZM102.864 164.807L99.7046 166.628C99.5714 166.706 99.5825 166.834 99.7046 166.917L103.352 169.027C103.431 169.067 103.517 169.088 103.605 169.088C103.693 169.088 103.78 169.067 103.858 169.027L107.011 167.2C107.145 167.128 107.139 166.995 107.011 166.911L103.364 164.807C103.286 164.768 103.201 164.748 103.114 164.748C103.027 164.748 102.941 164.768 102.864 164.807V164.807ZM99.4936 183.607L102.653 181.786C102.786 181.708 102.775 181.581 102.653 181.497L98.9995 179.387C98.922 179.348 98.8364 179.328 98.7496 179.328C98.6629 179.328 98.5773 179.348 98.4998 179.387L95.3405 181.209C95.2073 181.286 95.2128 181.42 95.3405 181.503L98.9939 183.607C99.0714 183.646 99.157 183.667 99.2438 183.667C99.3306 183.667 99.4161 183.646 99.4936 183.607V183.607ZM72.4206 180.875L68.7727 178.765C68.6945 178.726 68.6079 178.705 68.5201 178.705C68.4323 178.705 68.3457 178.726 68.2675 178.765L65.1138 180.587C64.9805 180.664 64.9861 180.792 65.1138 180.875L68.7616 182.985C68.8398 183.025 68.9264 183.046 69.0143 183.046C69.1021 183.046 69.1887 183.025 69.2669 182.985L72.4262 181.159C72.5761 181.086 72.565 180.959 72.4206 180.875V180.875ZM79.3388 182.902L75.6854 180.798C75.6079 180.759 75.5223 180.738 75.4355 180.738C75.3487 180.738 75.2631 180.759 75.1856 180.798L70.3274 183.602C70.1941 183.679 70.1997 183.807 70.3274 183.89L73.9808 186C74.0583 186.039 74.1439 186.06 74.2307 186.06C74.3174 186.06 74.403 186.039 74.4805 186L79.3388 183.196C79.4887 183.119 79.4831 182.985 79.3388 182.902ZM66.8239 176.794L63.1871 174.696C63.1096 174.657 63.024 174.636 62.9373 174.636C62.8505 174.636 62.7649 174.657 62.6874 174.696L58.8008 176.917C58.6675 176.994 58.6731 177.122 58.8008 177.205L62.4542 179.315C62.5317 179.354 62.6173 179.375 62.7041 179.375C62.7908 179.375 62.8764 179.354 62.9539 179.315L66.8405 177.094C66.9738 177.017 66.9682 176.883 66.8239 176.794ZM69.7999 175.073C69.8781 175.113 69.9647 175.134 70.0525 175.134C70.1404 175.134 70.227 175.113 70.3052 175.073L73.4589 173.252C73.5977 173.174 73.5866 173.047 73.4589 172.963L69.811 170.853C69.7328 170.813 69.6462 170.793 69.5584 170.793C69.4706 170.793 69.384 170.813 69.3058 170.853L66.152 172.68C66.0132 172.758 66.0243 172.886 66.152 172.969L69.7999 175.073ZM85.7628 185.206L82.1149 183.102C82.0367 183.062 81.9501 183.041 81.8623 183.041C81.7745 183.041 81.6879 183.062 81.6097 183.102L75.541 186.605C75.4077 186.683 75.4133 186.816 75.541 186.9L79.1944 189.004C79.2719 189.043 79.3575 189.063 79.4443 189.063C79.531 189.063 79.6166 189.043 79.6941 189.004L85.7683 185.5C85.9183 185.428 85.9072 185.295 85.7628 185.212V185.206ZM88.7943 189.481L85.1409 187.372C85.0634 187.333 84.9779 187.312 84.8911 187.312C84.8043 187.312 84.7187 187.333 84.6412 187.372L80.7546 189.592C80.6214 189.67 80.6269 189.803 80.7546 189.887L84.408 191.991C84.4855 192.03 84.5711 192.05 84.6579 192.05C84.7447 192.05 84.8302 192.03 84.9077 191.991L88.7943 189.77C88.9443 189.698 88.9387 189.565 88.7943 189.487V189.481ZM104.102 155.274C104.18 155.314 104.267 155.335 104.355 155.335C104.443 155.335 104.529 155.314 104.607 155.274L107.761 153.447C107.894 153.369 107.889 153.242 107.761 153.158L104.113 151.048C104.035 151.008 103.948 150.988 103.861 150.988C103.773 150.988 103.686 151.008 103.608 151.048L100.449 152.87C100.315 152.947 100.326 153.075 100.449 153.158L104.102 155.274ZM94.8741 160.598C94.9523 160.638 95.0389 160.659 95.1268 160.659C95.2146 160.659 95.3012 160.638 95.3794 160.598L98.5331 158.777C98.6719 158.699 98.6608 158.566 98.5331 158.483L94.8852 156.379C94.807 156.339 94.7204 156.318 94.6326 156.318C94.5448 156.318 94.4582 156.339 94.38 156.379L91.2263 158.2C91.0875 158.277 91.0986 158.411 91.2263 158.494L94.8741 160.598ZM74.4139 172.414C74.4921 172.454 74.5787 172.474 74.6665 172.474C74.7543 172.474 74.8409 172.454 74.9191 172.414L78.0728 170.587C78.2061 170.509 78.2005 170.382 78.0728 170.298L74.425 168.188C74.3468 168.148 74.2602 168.128 74.1724 168.128C74.0845 168.128 73.9979 168.148 73.9197 168.188L70.7605 170.01C70.6272 170.087 70.6383 170.215 70.7605 170.298L74.4139 172.414ZM99.4881 157.917C99.5663 157.957 99.6529 157.977 99.7407 157.977C99.8286 157.977 99.9151 157.957 99.9933 157.917L103.147 156.095C103.28 156.018 103.275 155.89 103.147 155.807L99.4992 153.697C99.421 153.657 99.3344 153.636 99.2466 153.636C99.1587 153.636 99.0722 153.657 98.9939 153.697L95.8402 155.524C95.7014 155.596 95.7125 155.729 95.8402 155.812L99.4881 157.917ZM90.2602 163.247C90.3384 163.287 90.425 163.308 90.5128 163.308C90.6006 163.308 90.6872 163.287 90.7654 163.247L93.9247 161.426C94.0579 161.348 94.0468 161.215 93.9247 161.131L90.2768 159.027C90.1986 158.987 90.112 158.966 90.0242 158.966C89.9364 158.966 89.8498 158.987 89.7716 159.027L86.6178 160.848C86.4846 160.926 86.4901 161.054 86.6178 161.137L90.2602 163.247ZM91.3318 189.809C91.2535 189.769 91.167 189.748 91.0791 189.748C90.9913 189.748 90.9047 189.769 90.8265 189.809L85.9516 192.624C85.8183 192.702 85.8294 192.829 85.9516 192.913L89.605 195.017C89.6832 195.057 89.7698 195.078 89.8576 195.078C89.9455 195.078 90.032 195.057 90.1103 195.017L94.963 192.241C95.0962 192.163 95.0907 192.036 94.963 191.952L91.3318 189.809ZM83.6418 167.045C83.72 167.085 83.8066 167.105 83.8944 167.105C83.9823 167.105 84.0689 167.085 84.1471 167.045L87.3008 165.223C87.434 165.146 87.4285 165.018 87.3008 164.935L83.6529 162.825C83.5747 162.785 83.4881 162.764 83.4003 162.764C83.3125 162.764 83.2259 162.785 83.1477 162.825L79.9884 164.646C79.8551 164.724 79.8662 164.857 79.9884 164.94L83.6418 167.045ZM79.0278 169.71C79.1061 169.75 79.1926 169.77 79.2805 169.77C79.3683 169.77 79.4549 169.75 79.5331 169.71L82.6868 167.889C82.8201 167.811 82.8145 167.678 82.6868 167.594L79.039 165.49C78.9607 165.45 78.8742 165.429 78.7863 165.429C78.6985 165.429 78.6119 165.45 78.5337 165.49L75.3578 167.356C75.2245 167.433 75.2356 167.566 75.3578 167.644L79.0278 169.71ZM176.798 140.482C176.72 140.442 176.634 140.422 176.546 140.422C176.458 140.422 176.371 140.442 176.293 140.482L168.52 144.969C168.387 145.046 168.392 145.18 168.52 145.263L172.173 147.367C172.251 147.406 172.336 147.427 172.423 147.427C172.51 147.427 172.596 147.406 172.673 147.367L180.446 142.881C180.58 142.803 180.568 142.676 180.446 142.592L176.798 140.482ZM166.599 146.368C166.521 146.329 166.436 146.308 166.349 146.308C166.262 146.308 166.177 146.329 166.099 146.368L162.94 148.189C162.807 148.267 162.812 148.394 162.94 148.478L166.593 150.588C166.671 150.627 166.756 150.647 166.843 150.647C166.93 150.647 167.015 150.627 167.093 150.588L170.252 148.761C170.385 148.683 170.38 148.555 170.252 148.472L166.599 146.368ZM104.108 180.948L107.267 179.121C107.4 179.043 107.389 178.915 107.267 178.832L103.619 176.722C103.541 176.682 103.454 176.661 103.366 176.661C103.279 176.661 103.192 176.682 103.114 176.722L99.96 178.543C99.8268 178.621 99.8323 178.749 99.96 178.832L103.613 180.942C103.69 180.981 103.774 181.002 103.86 181.003C103.946 181.004 104.03 180.985 104.108 180.948ZM157.376 151.698C157.298 151.658 157.212 151.637 157.124 151.637C157.036 151.637 156.949 151.658 156.871 151.698L153.69 153.508C153.556 153.586 153.568 153.719 153.69 153.802L157.338 155.907C157.416 155.947 157.502 155.967 157.59 155.967C157.678 155.967 157.765 155.947 157.843 155.907L160.997 154.086C161.13 154.008 161.124 153.875 160.997 153.791L157.376 151.698ZM181.412 137.817C181.334 137.777 181.248 137.756 181.16 137.756C181.072 137.756 180.985 137.777 180.907 137.817L177.753 139.644C177.62 139.722 177.626 139.849 177.753 139.933L181.401 142.043C181.479 142.083 181.566 142.103 181.654 142.103C181.742 142.103 181.828 142.083 181.907 142.043L185.066 140.221C185.199 140.144 185.188 140.016 185.066 139.933L181.412 137.817ZM189.674 137.262L180.791 132.143C180.712 132.103 180.626 132.082 180.538 132.082C180.45 132.082 180.363 132.103 180.285 132.143L177.132 133.964C176.993 134.042 177.004 134.169 177.132 134.253L186.015 139.372C186.093 139.412 186.18 139.433 186.268 139.433C186.356 139.433 186.442 139.412 186.52 139.372L189.674 137.545C189.83 137.479 189.819 137.373 189.674 137.262ZM140.137 161.653C140.058 161.613 139.972 161.592 139.884 161.592C139.796 161.592 139.709 161.613 139.631 161.653L135.745 163.874C135.611 163.952 135.617 164.08 135.745 164.163L139.398 166.273C139.476 166.312 139.561 166.332 139.648 166.332C139.735 166.332 139.82 166.312 139.898 166.273L143.784 164.052C143.918 163.98 143.912 163.846 143.784 163.763L140.137 161.653ZM151.796 154.924C151.718 154.884 151.632 154.863 151.544 154.863C151.456 154.863 151.369 154.884 151.291 154.924L146.433 157.728C146.3 157.806 146.311 157.933 146.433 158.017L150.081 160.126C150.159 160.166 150.245 160.187 150.333 160.187C150.421 160.187 150.508 160.166 150.586 160.126L155.439 157.35C155.572 157.273 155.566 157.139 155.439 157.056L151.796 154.924ZM129.454 167.816C129.376 167.777 129.291 167.757 129.204 167.757C129.117 167.757 129.032 167.777 128.954 167.816L102.969 182.808C102.836 182.885 102.847 183.019 102.969 183.102L106.617 185.206C106.695 185.246 106.782 185.267 106.87 185.267C106.958 185.267 107.044 185.246 107.123 185.206L133.102 170.215C133.235 170.137 133.229 170.01 133.102 169.926L129.454 167.816ZM102.02 183.663C101.942 183.623 101.855 183.602 101.767 183.602C101.679 183.602 101.593 183.623 101.515 183.663L97.6281 185.884C97.4948 185.961 97.5059 186.089 97.6281 186.172L101.276 188.282C101.354 188.322 101.441 188.343 101.529 188.343C101.616 188.343 101.703 188.322 101.781 188.282L105.668 186.061C105.801 185.984 105.796 185.856 105.668 185.773L102.02 183.663ZM134.779 164.735C134.701 164.696 134.615 164.675 134.529 164.675C134.442 164.675 134.356 164.696 134.279 164.735L130.392 166.956C130.259 167.033 130.265 167.167 130.392 167.244L134.046 169.354C134.123 169.393 134.209 169.414 134.296 169.414C134.382 169.414 134.468 169.393 134.545 169.354L138.432 167.133C138.565 167.056 138.56 166.928 138.432 166.845L134.779 164.735ZM96.662 186.744C96.5838 186.704 96.4972 186.683 96.4093 186.683C96.3215 186.683 96.2349 186.704 96.1567 186.744L92.2701 188.965C92.1368 189.043 92.1479 189.176 92.2701 189.254L95.9235 191.364C96.0017 191.404 96.0883 191.424 96.1761 191.424C96.264 191.424 96.3506 191.404 96.4288 191.364L100.315 189.143C100.449 189.065 100.443 188.937 100.315 188.854L96.662 186.744ZM145.467 158.566C145.389 158.526 145.302 158.505 145.214 158.505C145.126 158.505 145.04 158.526 144.961 158.566L141.075 160.787C140.942 160.865 140.953 160.998 141.075 161.081L144.728 163.186C144.806 163.226 144.893 163.247 144.981 163.247C145.069 163.247 145.155 163.226 145.234 163.186L149.12 160.965C149.253 160.887 149.248 160.759 149.12 160.676L145.467 158.566ZM161.985 149.033C161.907 148.994 161.822 148.974 161.735 148.974C161.648 148.974 161.563 148.994 161.485 149.033L158.326 150.86C158.193 150.932 158.204 151.065 158.326 151.148L161.979 153.253C162.057 153.292 162.142 153.312 162.229 153.312C162.316 153.312 162.402 153.292 162.479 153.253L165.638 151.432C165.772 151.354 165.766 151.226 165.638 151.143L161.985 149.033ZM172.096 141.693L175.249 139.872C175.388 139.794 175.377 139.661 175.249 139.577L171.601 137.473C171.523 137.433 171.437 137.412 171.349 137.412C171.261 137.412 171.174 137.433 171.096 137.473L167.942 139.294C167.809 139.372 167.815 139.505 167.942 139.588L171.59 141.693C171.669 141.733 171.755 141.754 171.843 141.754C171.931 141.754 172.017 141.733 172.096 141.693V141.693ZM151.469 141.56L154.628 139.738C154.761 139.661 154.75 139.527 154.628 139.444L150.98 137.34C150.902 137.3 150.815 137.279 150.728 137.279C150.64 137.279 150.553 137.3 150.475 137.34L147.321 139.161C147.188 139.239 147.194 139.372 147.321 139.455L150.969 141.56C151.047 141.599 151.132 141.619 151.219 141.619C151.306 141.619 151.391 141.599 151.469 141.56V141.56ZM141.014 159.638L150.242 154.308C150.375 154.23 150.369 154.102 150.242 154.019L146.594 151.909C146.516 151.869 146.429 151.848 146.341 151.848C146.253 151.848 146.167 151.869 146.089 151.909L136.861 157.234C136.727 157.311 136.733 157.439 136.861 157.522L140.514 159.632C140.591 159.672 140.676 159.693 140.763 159.694C140.85 159.695 140.936 159.676 141.014 159.638V159.638ZM166.976 144.347C167.055 144.387 167.141 144.408 167.229 144.408C167.317 144.408 167.403 144.387 167.482 144.347L170.641 142.52C170.774 142.448 170.763 142.315 170.641 142.231L166.971 140.149C166.893 140.109 166.806 140.088 166.718 140.088C166.63 140.088 166.544 140.109 166.466 140.149L163.312 141.97C163.179 142.048 163.184 142.176 163.312 142.259L166.976 144.347ZM162.268 141.349L165.427 139.522C165.561 139.444 165.549 139.316 165.427 139.233L161.779 137.123C161.701 137.083 161.615 137.062 161.527 137.062C161.439 137.062 161.352 137.083 161.274 137.123L158.12 138.95C157.987 139.028 157.993 139.155 158.12 139.239L161.768 141.349C161.846 141.388 161.931 141.408 162.018 141.408C162.105 141.408 162.191 141.388 162.268 141.349V141.349ZM136.4 162.303L139.559 160.476C139.692 160.398 139.687 160.271 139.559 160.187L135.906 158.078C135.828 158.039 135.743 158.018 135.656 158.018C135.569 158.018 135.483 158.039 135.406 158.078L132.247 159.904C132.113 159.982 132.119 160.11 132.247 160.193L135.9 162.303C135.978 162.342 136.063 162.362 136.15 162.362C136.237 162.362 136.322 162.342 136.4 162.303V162.303ZM156.782 150.232C156.86 150.271 156.945 150.292 157.032 150.292C157.119 150.292 157.205 150.271 157.282 150.232L160.441 148.411C160.575 148.333 160.569 148.2 160.441 148.122L156.788 146.012C156.71 145.973 156.625 145.953 156.538 145.953C156.451 145.953 156.366 145.973 156.288 146.012L153.134 147.834C153.001 147.911 153.007 148.045 153.134 148.128L156.782 150.232ZM113.336 175.617L116.489 173.796C116.623 173.718 116.611 173.585 116.489 173.502L112.841 171.398C112.763 171.358 112.677 171.337 112.589 171.337C112.501 171.337 112.414 171.358 112.336 171.398L109.182 173.219C109.049 173.296 109.055 173.43 109.182 173.513L112.83 175.617C112.909 175.657 112.995 175.678 113.083 175.678C113.171 175.678 113.257 175.657 113.336 175.617V175.617ZM117.95 172.952L121.103 171.131C121.242 171.053 121.231 170.926 121.103 170.842L117.455 168.732C117.377 168.693 117.291 168.672 117.203 168.672C117.115 168.672 117.028 168.693 116.95 168.732L113.796 170.559C113.658 170.637 113.669 170.765 113.796 170.848L117.444 172.952C117.522 172.992 117.609 173.013 117.697 173.013C117.785 173.013 117.871 172.992 117.95 172.952ZM108.716 178.282L111.875 176.461C112.009 176.384 111.997 176.25 111.875 176.167L108.227 174.063C108.149 174.023 108.063 174.002 107.975 174.002C107.887 174.002 107.8 174.023 107.722 174.063L104.568 175.884C104.435 175.962 104.441 176.089 104.568 176.173L108.216 178.282C108.294 178.322 108.379 178.342 108.466 178.342C108.553 178.342 108.639 178.322 108.716 178.282V178.282ZM127.172 167.628L130.326 165.806C130.459 165.729 130.453 165.595 130.326 165.512L126.678 163.408C126.6 163.368 126.513 163.347 126.425 163.347C126.337 163.347 126.251 163.368 126.172 163.408L123.013 165.229C122.88 165.307 122.891 165.44 123.013 165.518L126.661 167.628C126.741 167.669 126.829 167.691 126.919 167.691C127.009 167.691 127.098 167.669 127.177 167.628H127.172ZM122.558 170.293L125.712 168.466C125.845 168.388 125.839 168.261 125.712 168.177L122.042 166.073C121.963 166.033 121.877 166.012 121.789 166.012C121.701 166.012 121.615 166.033 121.536 166.073L118.388 167.911C118.255 167.988 118.266 168.116 118.388 168.199L122.036 170.309C122.118 170.351 122.21 170.371 122.302 170.368C122.394 170.365 122.484 170.339 122.563 170.293H122.558ZM131.786 164.962L134.94 163.141C135.073 163.064 135.067 162.936 134.94 162.853L131.286 160.743C131.209 160.704 131.123 160.683 131.036 160.683C130.95 160.683 130.864 160.704 130.786 160.743L127.594 162.553C127.461 162.631 127.472 162.764 127.594 162.847L131.242 164.951C131.325 165.001 131.419 165.028 131.515 165.03C131.611 165.032 131.707 165.008 131.791 164.962H131.786ZM152.885 125.541C152.963 125.581 153.049 125.602 153.137 125.602C153.225 125.602 153.312 125.581 153.39 125.541L156.544 123.72C156.677 123.642 156.671 123.515 156.544 123.431L155.572 122.876C155.494 122.836 155.407 122.815 155.319 122.815C155.231 122.815 155.145 122.836 155.067 122.876L151.913 124.697C151.78 124.775 151.785 124.903 151.913 124.986L152.885 125.541ZM130.187 140.188C130.264 140.227 130.35 140.247 130.437 140.247C130.523 140.247 130.609 140.227 130.687 140.188L133.846 138.367C133.979 138.289 133.973 138.161 133.846 138.078L130.192 135.968C130.115 135.929 130.029 135.909 129.942 135.909C129.856 135.909 129.77 135.929 129.693 135.968L126.533 137.789C126.4 137.867 126.406 138 126.533 138.084L130.187 140.188ZM139.415 134.863C139.492 134.902 139.578 134.923 139.665 134.923C139.751 134.923 139.837 134.902 139.914 134.863L143.074 133.042C143.207 132.965 143.196 132.831 143.074 132.748L139.426 130.644C139.348 130.604 139.261 130.583 139.173 130.583C139.085 130.583 138.999 130.604 138.921 130.644L135.767 132.465C135.634 132.543 135.639 132.67 135.767 132.754L139.415 134.863ZM124.562 143.481C124.641 143.521 124.727 143.541 124.815 143.541C124.903 143.541 124.989 143.521 125.068 143.481L128.221 141.659C128.355 141.582 128.349 141.448 128.221 141.365L124.573 139.261C124.495 139.221 124.409 139.2 124.321 139.2C124.233 139.2 124.146 139.221 124.068 139.261L120.914 141.082C120.776 141.16 120.787 141.293 120.914 141.376L124.562 143.481ZM134.812 137.551C134.889 137.59 134.975 137.61 135.062 137.61C135.149 137.61 135.234 137.59 135.312 137.551L138.471 135.724C138.604 135.646 138.599 135.519 138.471 135.435L134.817 133.325C134.74 133.286 134.654 133.266 134.568 133.266C134.481 133.266 134.395 133.286 134.318 133.325L131.142 135.152C131.009 135.23 131.014 135.358 131.142 135.441L134.812 137.551ZM115.334 148.794C115.413 148.834 115.499 148.855 115.587 148.855C115.675 148.855 115.761 148.834 115.84 148.794L118.999 146.973C119.132 146.895 119.121 146.768 118.999 146.684L115.351 144.574C115.273 144.534 115.186 144.514 115.098 144.514C115.011 144.514 114.924 144.534 114.846 144.574L111.692 146.401C111.559 146.479 111.564 146.607 111.692 146.69L115.334 148.794ZM119.948 146.129C120.027 146.169 120.113 146.19 120.201 146.19C120.289 146.19 120.375 146.169 120.454 146.129L123.607 144.302C123.746 144.23 123.735 144.097 123.607 144.014L119.959 141.909C119.881 141.869 119.795 141.848 119.707 141.848C119.619 141.848 119.532 141.869 119.454 141.909L116.3 143.73C116.162 143.808 116.173 143.936 116.3 144.019L119.948 146.129ZM143.696 130.888C143.774 130.928 143.86 130.949 143.948 130.949C144.036 130.949 144.123 130.928 144.201 130.888L147.355 129.067C147.488 128.989 147.482 128.856 147.355 128.773L146.383 128.217C146.305 128.177 146.218 128.157 146.13 128.157C146.042 128.157 145.956 128.177 145.878 128.217L142.724 130.044C142.591 130.122 142.596 130.249 142.724 130.333L143.696 130.888ZM157.537 122.898C157.616 122.938 157.702 122.959 157.79 122.959C157.878 122.959 157.964 122.938 158.043 122.898L161.196 121.071C161.33 120.994 161.324 120.866 161.196 120.783L160.225 120.228C160.147 120.188 160.06 120.167 159.972 120.167C159.884 120.167 159.798 120.188 159.72 120.228L156.566 122.049C156.427 122.126 156.438 122.26 156.566 122.343L157.537 122.898ZM165.205 127.34C165.283 127.379 165.368 127.399 165.455 127.399C165.542 127.399 165.627 127.379 165.705 127.34L168.864 125.519C168.997 125.441 168.992 125.308 168.864 125.225L165.211 123.12C165.133 123.081 165.048 123.061 164.961 123.061C164.874 123.061 164.789 123.081 164.711 123.12L161.552 124.941C161.419 125.019 161.424 125.152 161.552 125.236L165.205 127.34ZM176.71 139.039L179.863 137.218C180.002 137.14 179.991 137.012 179.863 136.929L176.215 134.819C176.137 134.779 176.051 134.758 175.963 134.758C175.875 134.758 175.788 134.779 175.71 134.819L172.568 136.618C172.429 136.696 172.44 136.829 172.568 136.912L176.215 139.017C176.29 139.058 176.374 139.082 176.46 139.086C176.546 139.09 176.631 139.073 176.71 139.039V139.039ZM148.282 128.234C148.36 128.274 148.447 128.295 148.534 128.295C148.622 128.295 148.709 128.274 148.787 128.234L151.941 126.413C152.074 126.335 152.068 126.202 151.941 126.119L150.969 125.563C150.891 125.523 150.804 125.502 150.716 125.502C150.629 125.502 150.542 125.523 150.464 125.563L147.293 127.379C147.16 127.457 147.166 127.584 147.293 127.668L148.282 128.234ZM110.72 151.465C110.799 151.505 110.885 151.526 110.973 151.526C111.061 151.526 111.147 151.505 111.226 151.465L114.385 149.644C114.518 149.566 114.507 149.438 114.385 149.355L110.737 147.245C110.659 147.205 110.572 147.184 110.484 147.184C110.397 147.184 110.31 147.205 110.232 147.245L107.05 149.033C106.917 149.111 106.923 149.244 107.05 149.327L110.72 151.465Z" fill="#455A64"/>
<path d="M131.181 179.149L162.329 161.165C162.856 160.897 163.439 160.757 164.031 160.757C164.622 160.757 165.205 160.897 165.733 161.165L183.594 171.475C184.533 172.031 184.533 172.897 183.594 173.435L152.44 191.425C151.913 191.69 151.332 191.829 150.741 191.829C150.151 191.829 149.569 191.69 149.042 191.425L131.181 181.109C130.242 180.57 130.242 179.687 131.181 179.149Z" fill="#263238"/>
<path d="M113.824 83.6212L118.71 75.1151L100.449 64.5102C97.3893 62.7612 93.1696 63.0221 88.5112 65.715C79.1056 71.0896 71.5156 84.2153 71.5156 95.0145C71.5156 100.422 73.4145 104.22 76.5126 105.98L94.9241 116.669L99.9212 107.929C107.078 102.394 112.719 92.5715 113.824 83.6212Z" fill="#455A64"/>
<path d="M106.834 76.3643C97.4837 81.7611 89.9048 94.8868 89.9048 105.686C89.9048 116.485 97.4837 120.855 106.834 115.458C116.184 110.061 123.763 96.9301 123.763 86.1364C123.763 75.3427 116.184 70.9619 106.834 76.3643Z" fill="#263238"/>
<path d="M124.035 89.068L128.643 81.006L119.526 75.7424C116.628 74.0768 112.625 74.3266 108.211 76.8807C99.3271 81.9943 92.1702 94.4315 92.1702 104.642C92.1702 109.767 93.9747 113.365 96.8841 115.036L106.145 120.383L110.881 112.099C117.639 106.891 122.985 97.563 124.035 89.068Z" fill="#F5F5F5"/>
<path d="M92.6477 99.7118C92.3165 101.342 92.1454 103.001 92.1369 104.664C92.1369 109.789 93.9414 113.387 96.8508 115.058L106.112 120.405L110.848 112.121C111.309 111.771 111.759 111.394 112.208 111.011L92.6477 99.7118Z" fill="#EBEBEB"/>
<path d="M117.405 82.2053C108.522 87.3246 101.365 99.7617 101.365 109.995C101.365 120.228 108.549 124.37 117.405 119.256C126.261 114.142 133.452 101.699 133.452 91.4943C133.452 81.2892 126.267 77.0917 117.405 82.2053Z" fill="#E0E0E0"/>
<path d="M196.22 146.029C194.271 147.467 189.935 146.323 189.663 146.257C189.874 146.346 193.25 147.922 194.105 151.298C194.416 152.57 193.422 154.074 192.517 154.691C189.524 156.74 185.105 154.624 182.712 153.325C183.674 154.26 184.415 155.398 184.883 156.656C185.316 158.089 185.06 159.666 183.928 160.404C181.49 161.992 178.142 162.12 167.298 155.618C167.711 156.195 167.969 156.868 168.048 157.572C168.053 157.63 168.053 157.687 168.048 157.745C168.051 158.085 167.973 158.422 167.82 158.727C167.733 158.899 167.623 159.057 167.493 159.199C167.078 159.628 166.563 159.947 165.994 160.126C162.318 161.465 152.485 155.129 145.817 150.96C139.148 146.79 129.715 140.055 125.056 135.741C118.227 129.428 119.282 126.441 112.686 121.183C110.706 119.631 108.623 118.215 106.451 116.946C106.256 116.857 103.858 115.369 101.826 114.092C101.516 112.752 101.365 111.381 101.376 110.006C101.374 109.219 101.418 108.433 101.509 107.652C102.475 97.9406 109.227 86.947 117.416 82.222C118.761 81.4282 120.207 80.8194 121.714 80.412C123.863 81.7723 126.866 83.6712 127.066 83.8044C128.904 85.1023 130.873 86.204 132.941 87.0914C133.94 87.5078 134.912 87.8521 135.917 88.1685C138.898 89.1124 148.781 91.3944 154.411 93.4766C160.042 95.5587 165.227 97.9184 167.393 99.3009C169.558 100.683 175.444 107.946 179.452 110.977C183.461 114.009 183.894 116.419 180.418 117.085C176.943 117.751 171.89 117.579 167.648 114.42C163.406 111.261 162.057 110.161 160.602 110.261C159.148 110.361 162.346 113.165 164.267 114.953C165.529 116.2 166.698 117.538 167.765 118.956C168.72 120.178 169.769 121.323 170.902 122.382C173.156 124.486 176.971 127.851 180.568 130.066C186.154 133.509 192.634 137.118 195.004 139.316C197.375 141.515 198.236 144.547 196.22 146.029Z" fill="#FFA8A7"/>
<path d="M195.537 144.325C194.183 145.107 192.312 144.819 189.247 143.725C186.182 142.631 178.786 138.783 176.088 137.223C174.55 136.34 168.564 132.842 163.695 130.005C163.63 129.964 163.552 129.95 163.477 129.967C163.402 129.983 163.336 130.029 163.295 130.094C163.254 130.159 163.24 130.237 163.257 130.312C163.273 130.387 163.319 130.453 163.384 130.494C167.654 133.42 172.89 136.973 175.216 138.406C180.424 141.615 184.738 143.736 189.652 146.262C189.652 146.262 194.205 147.523 196.22 146.04C197.52 145.08 197.608 143.475 196.876 141.865C196.868 142.353 196.742 142.831 196.509 143.259C196.276 143.688 195.943 144.053 195.537 144.325V144.325Z" fill="#F28F8F"/>
<path d="M191.856 153.547C189.369 154.258 185.194 152.114 183.528 151.259C181.862 150.404 170.308 144.202 168.376 143.042L157.271 136.379C157.207 136.338 157.135 136.31 157.06 136.296C156.985 136.283 156.908 136.284 156.834 136.3C156.759 136.317 156.689 136.347 156.626 136.391C156.563 136.434 156.51 136.49 156.469 136.554C156.428 136.618 156.399 136.69 156.386 136.765C156.372 136.84 156.374 136.917 156.39 136.991C156.406 137.066 156.437 137.137 156.481 137.199C156.524 137.262 156.579 137.315 156.644 137.356C162.346 141.243 169.22 145.057 172.534 146.895C176.059 148.802 179.447 150.952 182.673 153.33C185.066 154.63 189.485 156.751 192.478 154.696C193.389 154.08 194.377 152.575 194.066 151.304C194.083 151.298 194.038 152.92 191.856 153.547Z" fill="#F28F8F"/>
<path d="M183.905 160.393C184.927 159.727 185.232 158.372 184.96 157.062C184.944 157.595 184.735 158.105 184.373 158.498C184.011 158.89 183.52 159.139 182.989 159.199C181.029 159.51 179.258 159.055 176.882 158.216C174.505 157.378 167.132 152.725 164.767 151.426C163.29 150.615 154.695 145.23 148.437 141.293C148.054 141.049 147.982 141.582 148.359 141.848C153.001 144.919 155.533 146.768 157.637 148.244C161.557 150.993 165.344 153.408 167.26 155.618C178.12 162.109 181.451 161.981 183.905 160.393Z" fill="#F28F8F"/>
<path d="M168.037 157.733C168.04 158.074 167.962 158.411 167.809 158.716C167.722 158.888 167.612 159.046 167.482 159.188C167.067 159.617 166.552 159.936 165.983 160.115C162.307 161.453 152.474 155.118 145.805 150.948C139.137 146.779 129.704 140.044 125.045 135.73C118.216 129.417 119.271 126.429 112.675 121.171C110.695 119.62 108.612 118.204 106.44 116.935C106.245 116.846 103.847 115.358 101.815 114.081C101.505 112.741 101.354 111.37 101.365 109.995C101.363 109.208 101.407 108.422 101.498 107.64C107.861 111.583 115.612 115.969 118.116 118.412C118.205 118.501 118.288 118.579 118.366 118.662C121.603 121.888 122.808 125.202 125.029 130.399C127.339 135.73 136.566 141.382 145.794 147.884C155.022 154.385 161.291 158.039 164.256 158.894C164.716 159.036 165.195 159.111 165.677 159.116C166.186 159.166 166.697 159.038 167.123 158.755C167.549 158.471 167.864 158.05 168.015 157.561C168.037 157.606 168.037 157.672 168.037 157.733Z" fill="#F28F8F"/>
<path d="M123.074 81.2948L121.703 80.4286C120.196 80.836 118.75 81.4449 117.405 82.2387C109.216 86.9359 102.464 97.9517 101.498 107.64C101.407 108.422 101.363 109.208 101.365 109.995C101.354 111.37 101.505 112.741 101.815 114.081C103.847 115.358 106.256 116.857 106.44 116.935C107.223 117.407 107.944 117.857 108.622 118.29C108.744 116.352 108.849 114.314 108.922 112.182C109.738 88.1463 123.074 81.2948 123.074 81.2948Z" fill="#F28F8F"/>
<path opacity="0.5" d="M164.267 114.947C162.34 113.154 159.153 110.361 160.608 110.256C157.349 110.417 153.734 114.314 144.723 115.042C135.711 115.769 127.35 111.749 127.35 111.749C127.35 111.749 135.428 116.413 136.577 123.742C137.266 128.101 135.933 132.47 140.431 132.626C145.089 132.787 149.364 130.46 154.767 122.565C159.148 116.163 165 116.113 168.42 119.761C168.253 119.533 167.998 119.25 167.765 118.95C166.698 117.533 165.529 116.195 164.267 114.947Z" fill="#F28F8F"/>
<path d="M166.577 125.075C164.239 129.45 153.934 140.421 143.779 142.553C149.068 142.53 154.18 140.643 158.215 137.223C165.155 131.454 166.577 125.075 166.577 125.075Z" fill="#F28F8F"/>
<path d="M177.937 52.1396L179.908 48.0198L170.519 42.6008C169.499 42.0043 168.405 41.5451 167.265 41.2349C166.871 41.1294 166.466 41.0406 166.06 40.9684C164.043 40.6379 161.982 40.6944 159.986 41.135C159.244 41.289 158.512 41.4855 157.793 41.7235C157.023 41.9741 156.267 42.265 155.528 42.5952C154.531 43.0327 153.561 43.5296 152.624 44.0832C151.58 44.6931 150.568 45.3565 149.592 46.071C148.852 46.6225 148.112 47.2055 147.371 47.8199C136.655 56.8646 128.227 72.9996 126.089 88.5128C125.941 89.5677 125.825 90.619 125.739 91.6665C125.612 93.1656 125.551 94.6536 125.556 96.1083C125.556 97.3132 125.606 98.4792 125.701 99.6007C125.778 100.572 125.889 101.516 126.028 102.427C126.167 103.337 126.339 104.204 126.533 105.048C127.054 107.375 127.899 109.618 129.043 111.71C129.271 112.127 129.515 112.527 129.765 112.91C130.786 114.5 132.079 115.898 133.585 117.041C134.036 117.373 134.507 117.679 134.995 117.957V117.957L143.912 123.098L145.717 119.328C146.2 119.223 146.683 119.1 147.171 118.951C149.157 118.338 151.063 117.493 152.851 116.435C154.002 115.757 155.114 115.016 156.183 114.214C157.62 113.137 158.988 111.97 160.28 110.722C169.225 102.116 176.265 88.6516 178.842 75.2483C179.227 73.282 179.51 71.2972 179.691 69.3018C179.836 67.6361 179.913 66.0259 179.908 64.4158C179.914 62.0947 179.728 59.777 179.353 57.4865C179.044 55.6648 178.57 53.8751 177.937 52.1396Z" fill="#D0BB00"/>
<path opacity="0.25" d="M128.055 79.3348L146.322 89.8842L148.632 83.2214L130.342 72.672C129.476 74.8485 128.704 77.0806 128.055 79.3348Z" fill="white"/>
<path opacity="0.25" d="M170.519 42.6008C169.499 42.0043 168.405 41.5451 167.265 41.2349C166.871 41.1294 166.466 41.0406 166.06 40.9684C164.043 40.6379 161.982 40.6944 159.986 41.135C159.72 41.1905 159.431 41.2571 159.181 41.3293L177.953 52.1674C177.951 52.1526 177.951 52.1377 177.953 52.123L179.924 48.0032L170.519 42.6008Z" fill="white"/>
<path opacity="0.25" d="M169.397 68.6133L171.707 65.8372L144.69 50.2907C143.857 51.1199 143.04 51.9879 142.241 52.8947L169.397 68.6133Z" fill="white"/>
<path opacity="0.25" d="M136.666 60.3237L160.169 73.8936L162.673 67.3474L140.736 54.677C139.278 56.484 137.92 58.369 136.666 60.3237V60.3237Z" fill="white"/>
<path opacity="0.4" d="M170.519 42.6008C169.499 42.0043 168.405 41.5451 167.265 41.2349C166.871 41.1294 166.466 41.0406 166.06 40.9684C164.043 40.6379 161.982 40.6944 159.986 41.135C159.244 41.289 158.512 41.4855 157.793 41.7235C157.023 41.9741 156.267 42.265 155.528 42.5952C154.531 43.0327 153.561 43.5296 152.624 44.0832C151.58 44.6931 150.568 45.3565 149.592 46.071C148.852 46.6225 148.112 47.2055 147.371 47.8199C137.377 56.2428 129.398 70.8065 126.617 85.2869L163.906 106.835C171.124 98.3459 176.626 86.7805 178.842 75.2539C179.227 73.2876 179.51 71.3028 179.691 69.3074C179.836 67.6417 179.913 66.0315 179.908 64.4213C179.914 62.1002 179.728 59.7826 179.353 57.4921C179.05 55.669 178.582 53.8775 177.953 52.1396L179.924 48.0198L170.519 42.6008Z" fill="white"/>
<path opacity="0.1" d="M143.912 123.098L145.717 119.328C146.2 119.223 146.683 119.1 147.171 118.95C149.157 118.337 151.063 117.493 152.851 116.435C154.002 115.757 155.114 115.016 156.183 114.214C157.62 113.136 158.988 111.97 160.28 110.722C161.555 109.489 162.765 108.192 163.906 106.835L126.617 85.3035C126.409 86.3696 126.224 87.4356 126.062 88.5016C125.899 89.5677 125.782 90.6189 125.712 91.6554C125.584 93.1545 125.523 94.6425 125.529 96.0972C125.529 97.302 125.578 98.468 125.673 99.5896C125.751 100.561 125.862 101.505 126 102.416C126.139 103.326 126.311 104.192 126.506 105.036C127.026 107.364 127.871 109.607 129.015 111.699C129.243 112.116 129.487 112.515 129.737 112.898C130.758 114.489 132.051 115.887 133.557 117.029C134.009 117.362 134.48 117.668 134.967 117.946V117.946L143.912 123.098Z" fill="black"/>
<path opacity="0.1" d="M129.043 111.699C129.271 112.116 129.515 112.515 129.765 112.899C130.786 114.489 132.079 115.887 133.585 117.029C134.036 117.362 134.507 117.668 134.995 117.946V117.946L143.912 123.087L145.717 119.317H145.789L145.922 117.773L127.039 106.835C127.528 108.525 128.2 110.156 129.043 111.699V111.699Z" fill="black"/>
<path d="M188.564 62.8167C188.182 60.4477 187.503 58.1363 186.543 55.9374C185.396 53.1928 183.574 50.7826 181.246 48.9304C179.831 47.8396 178.213 47.0395 176.488 46.5762C176.093 46.4707 175.688 46.3875 175.283 46.3153C173.266 45.9801 171.204 46.0347 169.208 46.4763C168.467 46.633 167.735 46.8313 167.015 47.0704C166.247 47.3181 165.493 47.6072 164.756 47.9365C163.759 48.3784 162.788 48.8751 161.846 49.4246C160.801 50.0356 159.79 50.701 158.815 51.4178C158.071 51.9731 157.327 52.5283 156.594 53.1613C145.878 62.206 137.449 78.3243 135.312 93.8264C135.16 94.8887 135.043 95.9399 134.962 96.9801C134.836 98.4607 134.775 99.9413 134.779 101.422C134.779 102.621 134.834 103.787 134.923 104.909C135.001 105.886 135.112 106.824 135.251 107.735C135.389 108.645 135.561 109.517 135.761 110.361C136.282 112.688 137.124 114.93 138.265 117.024C138.499 117.435 138.737 117.835 138.987 118.218C140.007 119.811 141.302 121.21 142.813 122.349C144.997 123.993 147.627 124.939 150.358 125.064C152.401 125.156 154.444 124.889 156.394 124.275C158.38 123.665 160.287 122.82 162.074 121.76C163.225 121.083 164.338 120.342 165.405 119.539C166.843 118.463 168.212 117.296 169.503 116.047C178.447 107.441 185.488 93.9763 188.07 80.5786C188.44 78.5834 188.721 76.5994 188.914 74.6265C189.063 72.9608 189.136 71.3506 189.13 69.7405C189.135 67.4208 188.946 65.1048 188.564 62.8167V62.8167Z" fill="#D0BB00"/>
<path opacity="0.05" d="M135.85 90.6115C135.645 91.6831 135.462 92.7547 135.295 93.8263C135.128 94.8979 135.029 95.9362 134.945 96.98C134.819 98.4607 134.758 99.9413 134.762 101.422C134.762 102.621 134.818 103.787 134.906 104.909C134.984 105.886 135.095 106.824 135.234 107.735C135.373 108.645 135.545 109.517 135.745 110.361C136.265 112.688 137.108 114.93 138.249 117.024C138.482 117.435 138.721 117.834 138.971 118.218C139.99 119.811 141.286 121.21 142.796 122.349C144.985 123.996 147.622 124.942 150.358 125.064C152.401 125.156 154.444 124.889 156.394 124.275C158.38 123.665 160.287 122.82 162.074 121.76C163.079 121.171 164.062 120.516 165.039 119.806L135.85 90.6115Z" fill="black"/>
<path opacity="0.05" d="M136.272 112.254C136.765 113.913 137.435 115.514 138.271 117.029C138.504 117.44 138.743 117.84 138.993 118.223C140.013 119.816 141.308 121.215 142.818 122.354C144.61 123.7 146.709 124.578 148.926 124.908L136.272 112.254Z" fill="black"/>
<path opacity="0.25" d="M139.565 77.9967C138.693 80.1843 137.932 82.4385 137.283 84.6595L169.075 116.452L169.508 116.047C170.879 114.714 172.177 113.307 173.395 111.832L139.565 77.9967Z" fill="white"/>
<path opacity="0.25" d="M149.959 60.0072C148.51 61.8129 147.161 63.696 145.917 65.6484L180.896 100.628C182.007 98.5069 183.067 96.286 184 94.0651L149.959 60.0072Z" fill="white"/>
<path opacity="0.25" d="M153.929 55.6098C153.09 56.4426 152.263 57.3199 151.463 58.2305L184.922 91.6887C185.388 90.4394 185.827 89.179 186.226 87.902L153.929 55.6098Z" fill="white"/>
<path opacity="0.25" d="M189.058 67.3308C189.025 66.6811 188.969 66.0482 188.908 65.4263C188.908 65.2209 188.869 65.0099 188.847 64.81C188.825 64.6101 188.797 64.388 188.769 64.177C188.708 63.7162 188.642 63.2609 188.564 62.8167C188.182 60.4477 187.503 58.1363 186.543 55.9374C185.396 53.1928 183.574 50.7826 181.246 48.9304C179.831 47.8396 178.213 47.0395 176.488 46.5762C176.093 46.4707 175.694 46.3875 175.283 46.3153C173.266 45.9801 171.204 46.0347 169.209 46.4763C168.942 46.5318 168.653 46.604 168.398 46.6706L189.058 67.3308Z" fill="white"/>
<path d="M182.212 73.9046C182.212 88.2074 173.884 104.725 163.334 111.749C162.89 112.043 162.435 112.332 161.974 112.593C150.792 119.05 141.73 112.199 141.73 97.2854C141.73 82.3719 150.792 65.0487 161.974 58.5914C162.435 58.3304 162.89 58.0917 163.334 57.8696C173.872 52.7115 182.212 59.6019 182.212 73.9046Z" fill="#D0BB00"/>
<path opacity="0.4" d="M182.212 73.9046C182.212 88.2074 173.884 104.725 163.334 111.749C162.89 112.043 162.435 112.332 161.974 112.593C150.792 119.05 141.73 112.199 141.73 97.2854C141.73 82.3719 150.792 65.0487 161.974 58.5914C162.435 58.3304 162.89 58.0917 163.334 57.8696C173.872 52.7115 182.212 59.6019 182.212 73.9046Z" fill="black"/>
<path d="M181.312 74.4266C181.312 74.8819 181.312 75.3482 181.279 75.8146C180.768 89.1402 173.001 104.098 163.256 110.583L162.995 110.755C162.651 110.977 162.307 111.194 161.957 111.394C160.096 112.522 158.033 113.276 155.883 113.615C151.341 114.237 147.554 112.243 145.189 108.173C143.812 105.78 142.929 102.671 142.685 98.9455C142.635 98.246 142.613 97.5242 142.613 96.7802C142.613 96.0361 142.613 95.4087 142.674 94.7147C142.755 93.241 142.918 91.7729 143.163 90.3173C144.873 80.0177 150.381 69.5072 157.354 63.1998C158.327 62.3183 159.358 61.5039 160.441 60.7623C160.941 60.4236 161.446 60.1016 161.957 59.8073C162.468 59.5131 162.834 59.3243 163.256 59.1133L163.623 58.9467C166.521 57.5975 169.231 57.2089 171.624 57.6697C175.694 58.4526 178.842 61.7007 180.335 66.8865C181.012 69.3419 181.341 71.8799 181.312 74.4266V74.4266Z" fill="#D0BB00"/>
<path opacity="0.7" d="M181.312 74.4266C181.312 74.8819 181.312 75.3482 181.279 75.8146C180.768 89.1402 173.001 104.098 163.256 110.583L162.995 110.755C162.651 110.977 162.307 111.194 161.957 111.394C160.096 112.522 158.033 113.276 155.883 113.615C151.341 114.237 147.554 112.243 145.189 108.173C143.812 105.78 142.929 102.671 142.685 98.9455C142.635 98.246 142.613 97.5242 142.613 96.7802C142.613 96.0361 142.613 95.4087 142.674 94.7147C142.755 93.241 142.918 91.7729 143.163 90.3173C144.873 80.0177 150.381 69.5072 157.354 63.1998C158.327 62.3183 159.358 61.5039 160.441 60.7623C160.941 60.4236 161.446 60.1016 161.957 59.8073C162.468 59.5131 162.834 59.3243 163.256 59.1133L163.623 58.9467C166.521 57.5975 169.231 57.2089 171.624 57.6697C175.694 58.4526 178.842 61.7007 180.335 66.8865C181.012 69.3419 181.341 71.8799 181.312 74.4266V74.4266Z" fill="black"/>
<path d="M178.07 73.9491C178.07 73.4827 178.07 73.0163 178.07 72.5554C178.101 70.0072 177.774 67.4671 177.098 65.0099C176.221 61.9839 174.783 59.6241 172.934 58.0195C172.497 57.8681 172.05 57.7475 171.596 57.6586C169.203 57.1978 166.493 57.5864 163.595 58.9356L163.229 59.1022C162.807 59.3132 162.368 59.5464 161.929 59.7962C161.491 60.0461 160.913 60.4126 160.414 60.7512C159.331 61.4928 158.299 62.3072 157.327 63.1887C150.358 69.4961 144.873 80.0066 143.14 90.3062C142.896 91.7618 142.733 93.2299 142.652 94.7036C142.607 95.3976 142.591 96.0806 142.591 96.769C142.591 97.4575 142.591 98.2349 142.663 98.9345C142.907 102.66 143.773 105.769 145.167 108.162C145.836 109.341 146.697 110.399 147.715 111.294C149.301 111.829 150.99 111.982 152.646 111.738C154.797 111.397 156.861 110.643 158.726 109.517C159.076 109.317 159.42 109.101 159.758 108.879L160.025 108.707C169.791 102.227 177.565 87.2802 178.07 73.9491Z" fill="#D0BB00"/>
<path opacity="0.6" d="M178.07 73.9491C178.07 73.4827 178.07 73.0163 178.07 72.5554C178.101 70.0072 177.774 67.4671 177.098 65.0099C176.221 61.9839 174.783 59.6241 172.934 58.0195C172.497 57.8681 172.05 57.7475 171.596 57.6586C169.203 57.1978 166.493 57.5864 163.595 58.9356L163.229 59.1022C162.807 59.3132 162.368 59.5464 161.929 59.7962C161.491 60.0461 160.913 60.4126 160.414 60.7512C159.331 61.4928 158.299 62.3072 157.327 63.1887C150.358 69.4961 144.873 80.0066 143.14 90.3062C142.896 91.7618 142.733 93.2299 142.652 94.7036C142.607 95.3976 142.591 96.0806 142.591 96.769C142.591 97.4575 142.591 98.2349 142.663 98.9345C142.907 102.66 143.773 105.769 145.167 108.162C145.836 109.341 146.697 110.399 147.715 111.294C149.301 111.829 150.99 111.982 152.646 111.738C154.797 111.397 156.861 110.643 158.726 109.517C159.076 109.317 159.42 109.101 159.758 108.879L160.025 108.707C169.791 102.227 177.565 87.2802 178.07 73.9491Z" fill="black"/>
<path d="M175.283 46.3153C173.552 46.0458 171.787 46.0683 170.064 46.3819C169.209 46.5508 168.364 46.764 167.532 47.0204C167.321 47.0744 167.114 47.1392 166.91 47.2147L166.305 47.4535L165.083 47.9365C163.487 48.6345 161.956 49.4725 160.508 50.4406C159.781 50.9348 159.07 51.4123 158.398 51.9731C157.726 52.5338 156.999 53.0502 156.377 53.6387C155.755 54.2273 155.061 54.7992 154.45 55.4155C153.84 56.0318 153.218 56.6425 152.635 57.2922L150.914 59.241L149.248 61.3065L147.704 63.4164C147.199 64.1271 146.733 64.8655 146.244 65.5873C145.311 67.0587 144.401 68.5467 143.585 70.0847L142.957 71.234L142.402 72.4055C142.013 73.1884 141.614 73.9602 141.292 74.7653C140.564 76.3477 139.915 77.969 139.276 79.5902L138.404 82.0555C138.127 82.8827 137.888 83.7211 137.627 84.554C137.366 85.3868 137.172 86.2197 136.938 87.0747C136.705 87.9298 136.528 88.7404 136.344 89.6177L136.072 90.9003L135.856 92.1884C135.717 93.0546 135.556 93.893 135.478 94.7702C135.401 95.6475 135.273 96.5137 135.195 97.3743C135.117 98.2349 135.067 99.1121 135.04 99.9783C135.04 100.417 135.04 100.85 135.012 101.289C134.984 101.727 135.04 102.155 135.051 102.588C135.09 103.46 135.095 104.354 135.162 105.197L135.45 107.796L135.934 110.372V110.406V110.372C136.438 112.675 137.25 114.899 138.349 116.985C138.643 117.485 138.932 118.012 139.254 118.501C139.576 118.989 139.931 119.467 140.303 119.922C141.051 120.838 141.902 121.663 142.841 122.382C141.884 121.682 141.012 120.874 140.242 119.972C139.859 119.522 139.493 119.056 139.132 118.567C138.771 118.079 138.504 117.568 138.182 117.063C137.023 114.987 136.16 112.759 135.617 110.444V110.406V110.433L135.101 107.857L134.773 105.242C134.69 104.342 134.679 103.487 134.629 102.61C134.629 102.166 134.584 101.744 134.573 101.289C134.562 100.833 134.573 100.406 134.573 99.9672C134.573 99.0899 134.634 98.2127 134.695 97.3354C134.756 96.4581 134.879 95.592 134.967 94.7147C135.056 93.8374 135.201 92.9657 135.339 92.1051L135.55 90.8059L135.817 89.5178C135.995 88.6571 136.172 87.7965 136.405 86.947C136.639 86.0975 136.816 85.2369 137.088 84.4041C137.36 83.5712 137.583 82.7384 137.86 81.8833L138.732 79.3959L139.698 76.9473C140.009 76.1256 140.403 75.3372 140.753 74.5321C141.103 73.727 141.508 72.9441 141.897 72.1612L142.485 70.9786L143.14 69.8015C143.973 68.2524 144.895 66.7533 145.844 65.2764C146.333 64.549 146.81 63.8106 147.321 63.0943L148.887 60.9733L150.553 58.9301C151.108 58.2638 151.724 57.6198 152.313 56.9701C152.901 56.3205 153.557 55.7209 154.173 55.0935C154.789 54.466 155.478 53.9219 156.127 53.3334C156.777 52.7448 157.499 52.2229 158.187 51.6954C158.878 51.1492 159.597 50.6395 160.341 50.1686C161.815 49.2025 163.379 48.3824 165.011 47.72L166.238 47.2591L166.854 47.0315C167.064 46.9609 167.277 46.9016 167.493 46.8538C168.336 46.6105 169.193 46.4141 170.058 46.2653C171.79 45.9888 173.556 46.0057 175.283 46.3153V46.3153Z" fill="#F5F5F5"/>
<path d="M157.465 64.8766L160.808 66.8143L165.611 64.0382L162.268 62.106L157.465 64.8766Z" fill="#D0BB00"/>
<path opacity="0.2" d="M157.465 64.8766L160.808 66.8143L165.611 64.0382L162.268 62.106L157.465 64.8766Z" fill="black"/>
<path d="M159.137 67.7749L155.794 65.8427L150.986 68.6133L154.334 70.5511L159.137 67.7749Z" fill="#D0BB00"/>
<path opacity="0.2" d="M159.137 67.7749L155.794 65.8427L150.986 68.6133L154.334 70.5511L159.137 67.7749Z" fill="black"/>
<path d="M150.986 72.0613L154.334 73.9935L150.986 75.9312L147.638 73.9935L150.986 72.0613Z" fill="#D0BB00"/>
<path opacity="0.2" d="M150.986 72.0613L154.334 73.9935L150.986 75.9312L147.638 73.9935L150.986 72.0613Z" fill="black"/>
<path d="M147.638 80.3953L150.986 82.3331V75.9313L147.638 73.9935V80.3953Z" fill="#D0BB00"/>
<path opacity="0.35" d="M147.638 80.3953L150.986 82.3331V75.9313L147.638 73.9935V80.3953Z" fill="black"/>
<path d="M150.986 68.6133V72.0613L154.334 73.9935V70.551L150.986 68.6133Z" fill="#D0BB00"/>
<path opacity="0.35" d="M150.986 68.6133V72.0613L154.334 73.9935V70.551L150.986 68.6133Z" fill="black"/>
<path d="M157.465 64.8766V66.8088L159.137 67.7749V71.2229L160.808 70.2568V66.8144L157.465 64.8766Z" fill="#D0BB00"/>
<path opacity="0.35" d="M157.465 64.8766V66.8088L159.137 67.7749V71.2229L160.808 70.2568V66.8144L157.465 64.8766Z" fill="black"/>
<path d="M147.638 100.223L150.986 102.16L153.262 100.844L149.92 98.9122L147.638 100.223Z" fill="#D0BB00"/>
<path opacity="0.2" d="M147.638 100.223L150.986 102.16L153.262 100.844L149.92 98.9122L147.638 100.223Z" fill="black"/>
<path d="M149.92 98.9122L153.262 100.844V81.0172L150.986 82.333L149.92 81.7167V98.9122Z" fill="#D0BB00"/>
<path opacity="0.45" d="M149.92 98.9122L153.262 100.844V81.0172L150.986 82.333L149.92 81.7167V98.9122Z" fill="black"/>
<path d="M147.638 100.223L150.986 102.16V108.568L147.638 106.63V100.223Z" fill="#D0BB00"/>
<path opacity="0.35" d="M147.638 100.223L150.986 102.16V108.568L147.638 106.63V100.223Z" fill="black"/>
<path d="M154.334 106.63V109.445L151.896 108.04L154.334 106.63Z" fill="#D0BB00"/>
<path opacity="0.45" d="M154.334 106.63V109.445L151.896 108.04L154.334 106.63Z" fill="black"/>
<path d="M160.808 102.893V105.708L159.137 104.742V103.859L160.808 102.893Z" fill="#D0BB00"/>
<path opacity="0.45" d="M160.808 102.893V105.708L159.137 104.742V103.859L160.808 102.893Z" fill="black"/>
<path d="M167.165 67.0198C167.363 66.9853 167.564 66.9667 167.765 66.9643C168.394 66.9423 169.018 67.0859 169.575 67.3807L166.327 65.4985C166.1 65.3682 165.86 65.2622 165.611 65.182V67.5195C165.906 67.3783 166.212 67.2613 166.527 67.1697C166.678 67.1248 166.832 67.0878 166.988 67.0587L167.165 67.0198Z" fill="#D0BB00"/>
<path opacity="0.2" d="M167.165 67.0198C167.363 66.9853 167.564 66.9667 167.765 66.9643C168.394 66.9423 169.018 67.0859 169.575 67.3807L166.327 65.4985C166.1 65.3682 165.86 65.2622 165.611 65.182V67.5195C165.906 67.3783 166.212 67.2613 166.527 67.1697C166.678 67.1248 166.832 67.0878 166.988 67.0587L167.165 67.0198Z" fill="black"/>
<path d="M168.126 88.4517V89.0069C168.126 90.8114 167.015 92.8935 165.672 93.6931L158.931 97.5797L158.06 98.0794V94.1928L162.335 91.7275C163.667 90.9502 164.767 88.8848 164.789 87.0969L165.083 86.9248L165.672 86.5806C167.015 85.8143 168.126 86.6527 168.126 88.4517Z" fill="#D0BB00"/>
<path opacity="0.45" d="M168.126 88.4517V89.0069C168.126 90.8114 167.015 92.8935 165.672 93.6931L158.931 97.5797L158.06 98.0794V94.1928L162.335 91.7275C163.667 90.9502 164.767 88.8848 164.789 87.0969L165.083 86.9248L165.672 86.5806C167.015 85.8143 168.126 86.6527 168.126 88.4517Z" fill="black"/>
<path d="M167.282 75.8479V76.3476C167.282 77.9578 166.299 79.8345 165.061 80.5341L158.037 84.5873V80.7007L161.713 78.5797C162.321 78.1496 162.828 77.5938 163.202 76.95C163.576 76.3061 163.806 75.5894 163.878 74.8485L165.061 74.1656C166.299 73.5215 167.282 74.2322 167.282 75.8479Z" fill="#D0BB00"/>
<path opacity="0.45" d="M167.282 75.8479V76.3476C167.282 77.9578 166.299 79.8345 165.061 80.5341L158.037 84.5873V80.7007L161.713 78.5797C162.321 78.1496 162.828 77.5938 163.202 76.95C163.576 76.3061 163.806 75.5894 163.878 74.8485L165.061 74.1656C166.299 73.5215 167.282 74.2322 167.282 75.8479Z" fill="black"/>
<path d="M170.674 79.9844C171.566 77.9637 172.045 75.7854 172.085 73.5771V73.0718C172.085 68.2025 169.247 65.7816 165.611 67.5195V64.0382L160.808 66.8144V70.2568L159.142 71.2229V67.7749L154.339 70.5511V73.9935L151.008 75.9313V82.3331L153.285 81.0172V100.844L151.008 102.16V108.562L154.339 106.63V109.445L159.142 106.669V103.854L160.808 102.888V105.725L165.611 102.949V100.117L165.683 100.078C169.681 97.7685 172.94 91.5499 172.94 86.1975V85.6422C172.94 83.0493 172.112 80.9783 170.674 79.9844ZM167.282 75.848V76.3477C167.282 77.9579 166.299 79.8401 165.061 80.5341L158.037 84.5929V78.2466L158.909 77.7413L165.061 74.1878C166.299 73.5216 167.282 74.2378 167.282 75.848V75.848ZM158.065 90.9947L165.089 86.9415L165.683 86.5972C167.032 85.8144 168.137 86.6472 168.137 88.4517V89.0069C168.137 90.8114 167.027 92.8936 165.683 93.6986L158.937 97.5853L158.065 98.0905V90.9947Z" fill="#D0BB00"/>
<path opacity="0.3" d="M165.611 67.5195V65.7039L164.556 64.649L161.33 66.5145L171.69 76.8529C171.944 75.7716 172.076 74.6654 172.085 73.5549V73.0496C172.085 72.7276 172.085 72.4166 172.046 72.1168L166.965 67.0364C166.496 67.141 166.041 67.3032 165.611 67.5195V67.5195Z" fill="white"/>
<path opacity="0.3" d="M167.276 75.7425C167.276 75.7758 167.276 75.8146 167.276 75.8535V76.3532C167.276 77.9634 166.294 79.8456 165.055 80.5396L163.329 81.5391L172.279 90.4894C172.68 89.101 172.891 87.6647 172.906 86.2197V85.6644C172.906 83.0326 172.079 80.9616 170.641 79.9678C170.724 79.7679 170.802 79.5624 170.885 79.357L167.276 75.7425Z" fill="white"/>
<path opacity="0.3" d="M160.069 96.919L158.937 97.5686L158.065 98.0738V94.9146L153.262 90.1118V99.0566L159.137 104.931V103.859L160.808 102.893V105.708L165.611 102.932V102.46L160.069 96.919Z" fill="white"/>
<path opacity="0.25" d="M159.337 77.5081L165.089 74.1767C165.23 74.0978 165.379 74.0327 165.533 73.9824L160.808 69.2574V70.2457L159.142 71.2118V67.7638L154.339 70.54V72.4944L159.337 77.5081Z" fill="white"/>
<path d="M153.262 81.0171V100.844C153.318 100.017 153.346 99.1787 153.385 98.3681C153.423 97.5575 153.434 96.7024 153.462 95.8862C153.512 94.2205 153.534 92.5826 153.54 90.9336C153.546 89.2845 153.54 87.6022 153.54 85.9754C153.54 85.1481 153.512 84.3097 153.49 83.499L153.418 81.0171V80.784L153.229 80.9061C152.491 81.3836 151.747 81.8444 151.008 82.333L153.262 81.0171Z" fill="#F5F5F5"/>
<path d="M155.616 69.9958C156.033 69.8015 156.449 69.5905 156.86 69.3795C157.271 69.1685 157.676 68.9409 158.076 68.7132C158.348 68.5633 158.631 68.4023 158.887 68.2413C158.887 68.6633 158.92 69.0797 158.948 69.5017C158.948 69.7848 158.992 70.0569 159.026 70.3623C159.059 70.6676 159.087 70.9175 159.137 71.2229V67.7749L154.334 70.551C154.55 70.4678 154.767 70.3734 154.978 70.279C155.189 70.1846 155.405 70.0958 155.616 69.9958Z" fill="#F5F5F5"/>
<path d="M162.09 66.2591C162.507 66.0593 162.923 65.8538 163.334 65.6373C164.023 65.2819 164.694 64.8933 165.361 64.4991C165.361 64.9266 165.389 65.3541 165.422 65.7816C165.422 66.0704 165.466 66.3369 165.5 66.6478C165.533 66.9587 165.561 67.203 165.611 67.5195V64.0382L160.808 66.8144C161.024 66.7311 161.241 66.6367 161.452 66.5423C161.663 66.4479 161.879 66.3591 162.09 66.2591Z" fill="#F5F5F5"/>
<path d="M167.282 75.848V76.3477C167.282 77.9578 166.299 79.8401 165.061 80.5341L158.048 84.5873L158.715 84.2708C159.126 84.0598 159.731 83.7766 160.436 83.3991C161.141 83.0215 161.968 82.594 162.846 82.111L164.189 81.3614L164.878 80.9672L165.222 80.7729C165.347 80.6973 165.468 80.6139 165.583 80.523C166.028 80.1683 166.404 79.7356 166.693 79.246C166.966 78.7838 167.175 78.287 167.315 77.7691C167.449 77.285 167.508 76.783 167.487 76.281C167.498 75.8329 167.442 75.3857 167.321 74.954C167.216 74.5693 166.97 74.2381 166.632 74.0268C166.371 73.8733 166.062 73.8238 165.766 73.888C165.585 73.9272 165.41 73.9947 165.25 74.0879L165.089 74.1878C166.305 73.5215 167.282 74.2433 167.282 75.848Z" fill="#F5F5F5"/>
<path d="M168.342 88.8626C168.348 88.3674 168.275 87.8744 168.126 87.4023C168.002 86.9847 167.727 86.6283 167.354 86.4029C167.067 86.2382 166.727 86.1886 166.405 86.2641C166.209 86.3072 166.022 86.3802 165.849 86.4806L165.666 86.5917H165.711C167.043 85.8477 168.126 86.675 168.126 88.4628V89.018C168.126 90.8225 167.015 92.9046 165.672 93.7097L158.926 97.5963L158.065 98.096L158.781 97.7463C159.237 97.5075 159.892 97.191 160.675 96.769C161.458 96.3471 162.34 95.8807 163.323 95.3477L164.8 94.5204C165.332 94.2406 165.843 93.9253 166.332 93.5765C167.227 92.7598 167.86 91.6976 168.154 90.5227C168.299 89.9819 168.363 89.4223 168.342 88.8626Z" fill="#F5F5F5"/>
<path d="M172.94 86.2141V85.6589C172.94 83.0271 172.112 80.9561 170.674 79.9622L170.869 80.1343C171.049 80.3063 171.216 80.492 171.368 80.6896C171.887 81.3778 172.253 82.1692 172.44 83.0104C172.578 83.5673 172.662 84.1363 172.69 84.7094C172.723 85.3531 172.723 85.998 172.69 86.6416C172.681 86.9798 172.653 87.3172 172.607 87.6522C172.568 87.9908 172.523 88.3351 172.457 88.6793C172.39 89.0236 172.329 89.3734 172.24 89.7176C172.151 90.0619 172.068 90.4061 171.957 90.7448C171.846 91.0835 171.751 91.4277 171.629 91.7609C171.507 92.094 171.385 92.4271 171.246 92.7492C171.107 93.0712 170.969 93.3932 170.819 93.7042C170.677 94.0175 170.52 94.3233 170.347 94.6203C170.191 94.9201 170.03 95.2033 169.858 95.4809C169.686 95.7585 169.536 96.0361 169.358 96.2804C169.038 96.7606 168.694 97.224 168.326 97.6685C167.97 98.0738 167.648 98.4458 167.326 98.7457C167.06 99.0114 166.78 99.2634 166.488 99.5008C165.983 99.8839 165.688 100.095 165.688 100.095C169.68 97.7685 172.94 91.5499 172.94 86.2141Z" fill="#F5F5F5"/>
<path d="M156.61 107.84C155.819 108.327 155.058 108.863 154.334 109.445L159.137 106.669V103.854C158.998 104.734 158.915 105.622 158.887 106.513C158.109 106.928 157.351 107.37 156.61 107.84Z" fill="#F5F5F5"/>
<path d="M165.611 100.117C165.483 101.011 165.427 101.899 165.383 102.788C164.595 103.188 163.828 103.626 163.079 104.093C162.285 104.578 161.527 105.118 160.808 105.708L165.611 102.932V100.117Z" fill="#F5F5F5"/>
</svg>
