<svg width="128" height="64" viewBox="0 0 128 64" fill="none" xmlns="http://www.w3.org/2000/svg">
<path d="M11.784 36.12C10.64 36.12 9.74403 35.844 9.09603 35.292C8.45603 34.732 8.11603 33.924 8.07603 32.868C8.06803 32.652 8.06403 32.3 8.06403 31.812C8.06403 31.316 8.06803 30.956 8.07603 30.732C8.11603 29.692 8.46403 28.892 9.12003 28.332C9.77603 27.764 10.664 27.48 11.784 27.48C12.488 27.48 13.12 27.6 13.68 27.84C14.24 28.072 14.68 28.408 15 28.848C15.328 29.28 15.496 29.788 15.504 30.372V30.396C15.504 30.46 15.476 30.516 15.42 30.564C15.372 30.604 15.316 30.624 15.252 30.624H13.632C13.528 30.624 13.448 30.604 13.392 30.564C13.336 30.516 13.288 30.432 13.248 30.312C13.136 29.904 12.96 29.62 12.72 29.46C12.48 29.292 12.164 29.208 11.772 29.208C10.828 29.208 10.34 29.736 10.308 30.792C10.3 31.008 10.296 31.34 10.296 31.788C10.296 32.236 10.3 32.576 10.308 32.808C10.34 33.864 10.828 34.392 11.772 34.392C12.164 34.392 12.484 34.308 12.732 34.14C12.98 33.964 13.152 33.68 13.248 33.288C13.28 33.168 13.324 33.088 13.38 33.048C13.436 33 13.52 32.976 13.632 32.976H15.252C15.324 32.976 15.384 33 15.432 33.048C15.488 33.096 15.512 33.156 15.504 33.228C15.496 33.812 15.328 34.324 15 34.764C14.68 35.196 14.24 35.532 13.68 35.772C13.12 36.004 12.488 36.12 11.784 36.12ZM16.9338 36C16.8458 36 16.7738 35.972 16.7178 35.916C16.6618 35.86 16.6338 35.788 16.6338 35.7V30.06C16.6338 29.972 16.6618 29.9 16.7178 29.844C16.7738 29.788 16.8458 29.76 16.9338 29.76H18.3138C18.4018 29.76 18.4738 29.792 18.5298 29.856C18.5938 29.912 18.6258 29.98 18.6258 30.06V30.54C19.0658 30.02 19.6578 29.76 20.4018 29.76H20.9298C21.0178 29.76 21.0898 29.788 21.1458 29.844C21.2018 29.9 21.2298 29.972 21.2298 30.06V31.296C21.2298 31.376 21.2018 31.448 21.1458 31.512C21.0898 31.568 21.0178 31.596 20.9298 31.596H19.7658C19.4378 31.596 19.1818 31.688 18.9978 31.872C18.8218 32.048 18.7338 32.3 18.7338 32.628V35.7C18.7338 35.788 18.7018 35.86 18.6378 35.916C18.5818 35.972 18.5098 36 18.4218 36H16.9338ZM22.371 28.86C22.283 28.86 22.211 28.832 22.155 28.776C22.099 28.72 22.071 28.648 22.071 28.56V27.48C22.071 27.392 22.099 27.32 22.155 27.264C22.211 27.208 22.283 27.18 22.371 27.18H23.811C23.899 27.18 23.971 27.208 24.027 27.264C24.083 27.32 24.111 27.392 24.111 27.48V28.56C24.111 28.648 24.083 28.72 24.027 28.776C23.971 28.832 23.899 28.86 23.811 28.86H22.371ZM22.383 36C22.295 36 22.223 35.972 22.167 35.916C22.111 35.86 22.083 35.788 22.083 35.7V30.06C22.083 29.972 22.111 29.9 22.167 29.844C22.223 29.788 22.295 29.76 22.383 29.76H23.799C23.887 29.76 23.959 29.788 24.015 29.844C24.071 29.9 24.099 29.972 24.099 30.06V35.7C24.099 35.78 24.071 35.852 24.015 35.916C23.959 35.972 23.887 36 23.799 36H22.383ZM25.8165 38.28C25.7365 38.28 25.6645 38.252 25.6005 38.196C25.5445 38.14 25.5165 38.068 25.5165 37.98V30.06C25.5165 29.972 25.5445 29.9 25.6005 29.844C25.6645 29.788 25.7365 29.76 25.8165 29.76H27.1725C27.2605 29.76 27.3325 29.788 27.3885 29.844C27.4445 29.9 27.4725 29.972 27.4725 30.06V30.492C27.9045 29.924 28.5245 29.64 29.3325 29.64C30.1165 29.64 30.7285 29.884 31.1685 30.372C31.6085 30.86 31.8485 31.548 31.8885 32.436C31.8965 32.54 31.9005 32.688 31.9005 32.88C31.9005 33.072 31.8965 33.22 31.8885 33.324C31.8565 34.188 31.6165 34.872 31.1685 35.376C30.7205 35.872 30.1085 36.12 29.3325 36.12C28.5485 36.12 27.9645 35.852 27.5805 35.316V37.98C27.5805 38.068 27.5525 38.14 27.4965 38.196C27.4405 38.252 27.3685 38.28 27.2805 38.28H25.8165ZM28.6845 34.512C29.0605 34.512 29.3285 34.4 29.4885 34.176C29.6565 33.952 29.7525 33.644 29.7765 33.252C29.7925 33.092 29.8005 32.968 29.8005 32.88C29.8005 32.792 29.7925 32.668 29.7765 32.508C29.7525 32.116 29.6565 31.808 29.4885 31.584C29.3285 31.36 29.0605 31.248 28.6845 31.248C28.3165 31.248 28.0445 31.364 27.8685 31.596C27.7005 31.82 27.6045 32.112 27.5805 32.472L27.5685 32.916L27.5805 33.372C27.5965 33.7 27.6965 33.972 27.8805 34.188C28.0645 34.404 28.3325 34.512 28.6845 34.512ZM36.2438 36C34.5878 36 33.7598 35.212 33.7598 33.636V31.332H32.8238C32.7358 31.332 32.6598 31.304 32.5958 31.248C32.5398 31.192 32.5118 31.12 32.5118 31.032V30.06C32.5118 29.972 32.5398 29.9 32.5958 29.844C32.6598 29.788 32.7358 29.76 32.8238 29.76H33.7598V27.78C33.7598 27.692 33.7878 27.62 33.8438 27.564C33.9078 27.508 33.9798 27.48 34.0598 27.48H35.4518C35.5398 27.48 35.6118 27.508 35.6678 27.564C35.7238 27.62 35.7518 27.692 35.7518 27.78V29.76H37.2518C37.3398 29.76 37.4118 29.788 37.4678 29.844C37.5318 29.9 37.5638 29.972 37.5638 30.06V31.032C37.5638 31.12 37.5318 31.192 37.4678 31.248C37.4118 31.304 37.3398 31.332 37.2518 31.332H35.7518V33.468C35.7518 34.06 35.9798 34.356 36.4358 34.356H37.3598C37.4478 34.356 37.5198 34.384 37.5758 34.44C37.6318 34.496 37.6598 34.568 37.6598 34.656V35.7C37.6598 35.78 37.6318 35.852 37.5758 35.916C37.5198 35.972 37.4478 36 37.3598 36H36.2438ZM41.6053 36.12C40.6133 36.12 39.8493 35.884 39.3133 35.412C38.7773 34.94 38.4853 34.276 38.4373 33.42C38.4293 33.316 38.4253 33.136 38.4253 32.88C38.4253 32.624 38.4293 32.444 38.4373 32.34C38.4853 31.492 38.7853 30.832 39.3373 30.36C39.8893 29.88 40.6453 29.64 41.6053 29.64C42.5733 29.64 43.3333 29.88 43.8853 30.36C44.4373 30.832 44.7373 31.492 44.7853 32.34C44.7933 32.444 44.7973 32.624 44.7973 32.88C44.7973 33.136 44.7933 33.316 44.7853 33.42C44.7373 34.276 44.4453 34.94 43.9093 35.412C43.3733 35.884 42.6053 36.12 41.6053 36.12ZM41.6053 34.656C41.9573 34.656 42.2173 34.552 42.3853 34.344C42.5533 34.128 42.6493 33.8 42.6733 33.36C42.6813 33.28 42.6853 33.12 42.6853 32.88C42.6853 32.64 42.6813 32.48 42.6733 32.4C42.6493 31.968 42.5493 31.644 42.3733 31.428C42.2053 31.212 41.9493 31.104 41.6053 31.104C40.9413 31.104 40.5893 31.536 40.5493 32.4L40.5373 32.88L40.5493 33.36C40.5653 33.8 40.6573 34.128 40.8253 34.344C41.0013 34.552 41.2613 34.656 41.6053 34.656ZM48.976 36C48.896 36 48.824 35.972 48.76 35.916C48.704 35.852 48.676 35.78 48.676 35.7V27.9C48.676 27.812 48.704 27.74 48.76 27.684C48.824 27.628 48.896 27.6 48.976 27.6H50.584C50.672 27.6 50.744 27.628 50.8 27.684C50.864 27.74 50.896 27.812 50.896 27.9V35.7C50.896 35.788 50.864 35.86 50.8 35.916C50.744 35.972 50.672 36 50.584 36H48.976ZM52.7345 36C52.6465 36 52.5745 35.972 52.5185 35.916C52.4625 35.86 52.4345 35.788 52.4345 35.7V30.06C52.4345 29.972 52.4625 29.9 52.5185 29.844C52.5745 29.788 52.6465 29.76 52.7345 29.76H54.1145C54.2025 29.76 54.2745 29.788 54.3305 29.844C54.3945 29.9 54.4265 29.972 54.4265 30.06V30.516C54.6425 30.252 54.9185 30.04 55.2545 29.88C55.5985 29.72 55.9865 29.64 56.4185 29.64C57.1225 29.64 57.6945 29.88 58.1345 30.36C58.5745 30.832 58.7945 31.496 58.7945 32.352V35.7C58.7945 35.78 58.7665 35.852 58.7105 35.916C58.6545 35.972 58.5825 36 58.4945 36H56.9825C56.9025 36 56.8305 35.972 56.7665 35.916C56.7105 35.852 56.6825 35.78 56.6825 35.7V32.424C56.6825 32.048 56.5905 31.76 56.4065 31.56C56.2225 31.352 55.9585 31.248 55.6145 31.248C55.2785 31.248 55.0145 31.352 54.8225 31.56C54.6305 31.76 54.5345 32.048 54.5345 32.424V35.7C54.5345 35.78 54.5065 35.852 54.4505 35.916C54.3945 35.972 54.3225 36 54.2345 36H52.7345ZM62.4735 36.12C61.6895 36.12 61.0775 35.876 60.6375 35.388C60.2055 34.892 59.9695 34.196 59.9295 33.3L59.9175 32.88L59.9295 32.448C59.9615 31.584 60.1975 30.9 60.6375 30.396C61.0855 29.892 61.6975 29.64 62.4735 29.64C63.2015 29.64 63.7895 29.876 64.2375 30.348V27.78C64.2375 27.692 64.2655 27.62 64.3215 27.564C64.3775 27.508 64.4495 27.48 64.5375 27.48H66.0015C66.0895 27.48 66.1615 27.508 66.2175 27.564C66.2735 27.62 66.3015 27.692 66.3015 27.78V35.7C66.3015 35.78 66.2735 35.852 66.2175 35.916C66.1615 35.972 66.0895 36 66.0015 36H64.6455C64.5655 36 64.4935 35.972 64.4295 35.916C64.3735 35.852 64.3455 35.78 64.3455 35.7V35.316C63.9055 35.852 63.2815 36.12 62.4735 36.12ZM63.1335 34.512C63.4935 34.512 63.7615 34.4 63.9375 34.176C64.1135 33.944 64.2135 33.648 64.2375 33.288C64.2455 33.184 64.2495 33.032 64.2495 32.832C64.2495 32.64 64.2455 32.492 64.2375 32.388C64.2215 32.06 64.1215 31.788 63.9375 31.572C63.7535 31.356 63.4855 31.248 63.1335 31.248C62.7575 31.248 62.4855 31.36 62.3175 31.584C62.1575 31.808 62.0655 32.116 62.0415 32.508C62.0335 32.588 62.0295 32.712 62.0295 32.88C62.0295 33.048 62.0335 33.172 62.0415 33.252C62.0655 33.644 62.1575 33.952 62.3175 34.176C62.4855 34.4 62.7575 34.512 63.1335 34.512ZM70.5958 36.12C69.6358 36.12 68.8798 35.86 68.3278 35.34C67.7758 34.82 67.4878 34.064 67.4638 33.072V32.652C67.4958 31.708 67.7878 30.972 68.3398 30.444C68.8998 29.908 69.6478 29.64 70.5838 29.64C71.2638 29.64 71.8358 29.78 72.2998 30.06C72.7718 30.332 73.1238 30.708 73.3558 31.188C73.5958 31.668 73.7158 32.22 73.7158 32.844V33.132C73.7158 33.212 73.6878 33.284 73.6318 33.348C73.5758 33.404 73.5038 33.432 73.4158 33.432H69.5758V33.516C69.5918 33.892 69.6838 34.196 69.8518 34.428C70.0198 34.66 70.2638 34.776 70.5838 34.776C70.7838 34.776 70.9478 34.736 71.0758 34.656C71.2038 34.568 71.3198 34.464 71.4238 34.344C71.4958 34.256 71.5518 34.204 71.5918 34.188C71.6398 34.164 71.7118 34.152 71.8078 34.152H73.2958C73.3678 34.152 73.4278 34.176 73.4758 34.224C73.5318 34.264 73.5598 34.32 73.5598 34.392C73.5598 34.6 73.4398 34.84 73.1998 35.112C72.9678 35.384 72.6278 35.62 72.1798 35.82C71.7318 36.02 71.2038 36.12 70.5958 36.12ZM71.6038 32.244V32.22C71.6038 31.828 71.5118 31.52 71.3278 31.296C71.1518 31.064 70.9038 30.948 70.5838 30.948C70.2718 30.948 70.0238 31.064 69.8398 31.296C69.6638 31.52 69.5758 31.828 69.5758 32.22V32.244H71.6038ZM74.3895 36C74.3175 36 74.2535 35.976 74.1975 35.928C74.1495 35.872 74.1255 35.804 74.1255 35.724C74.1255 35.66 74.1455 35.6 74.1855 35.544L76.1895 32.796L74.3655 30.216C74.3175 30.152 74.2935 30.088 74.2935 30.024C74.2935 29.952 74.3215 29.892 74.3775 29.844C74.4335 29.788 74.4975 29.76 74.5695 29.76H76.0335C76.1775 29.76 76.2935 29.828 76.3815 29.964L77.4975 31.5L78.6015 29.976C78.6495 29.912 78.6975 29.86 78.7455 29.82C78.7935 29.78 78.8655 29.76 78.9615 29.76H80.3655C80.4375 29.76 80.4975 29.788 80.5455 29.844C80.6015 29.892 80.6295 29.952 80.6295 30.024C80.6295 30.104 80.6095 30.168 80.5695 30.216L78.6975 32.796L80.7375 35.544C80.7775 35.6 80.7975 35.66 80.7975 35.724C80.7975 35.804 80.7695 35.872 80.7135 35.928C80.6655 35.976 80.6055 36 80.5335 36H78.9975C78.8615 36 78.7495 35.936 78.6615 35.808L77.4495 34.164L76.2255 35.808C76.1775 35.872 76.1295 35.92 76.0815 35.952C76.0335 35.984 75.9695 36 75.8895 36H74.3895Z" fill="#2F535A"/>
<path d="M104.5 48C113.337 48 120.5 40.8365 120.5 32C120.5 23.1635 113.337 16 104.5 16C95.6635 16 88.5 23.1635 88.5 32C88.5 40.8365 95.6635 48 104.5 48Z" fill="#3C6A73"/>
<path d="M105.144 47.987C104.93 47.9955 104.716 48 104.5 48C95.6635 48 88.5 40.8365 88.5 32C88.5 23.1636 95.6635 16 104.5 16C104.716 16 104.93 16.0045 105.144 16.0129C96.6063 16.3502 89.7878 23.3793 89.7878 32C89.7878 40.6208 96.6063 47.6497 105.144 47.987Z" fill="#2F535A"/>
<path d="M104.5 45.7465C100.828 45.7465 97.376 44.3165 94.7797 41.7203C92.1835 39.124 90.7535 35.6718 90.7535 32C90.7535 24.4202 96.9202 18.2535 104.5 18.2535C112.08 18.2535 118.246 24.4202 118.246 32C118.246 35.6718 116.816 39.124 114.22 41.7203C111.624 44.3165 108.172 45.7465 104.5 45.7465Z" fill="#ECB880"/>
<path d="M104.5 45.7465C100.828 45.7465 97.376 44.3165 94.7797 41.7203C92.1835 39.124 90.7535 35.6718 90.7535 32C90.7535 24.4202 96.9202 18.2535 104.5 18.2535C112.08 18.2535 118.246 24.4202 118.246 32C118.246 35.6718 116.816 39.124 114.22 41.7203C111.624 44.3165 108.172 45.7465 104.5 45.7465Z" fill="#FFD064"/>
<path d="M114.752 41.1578C114.581 41.3495 114.404 41.537 114.22 41.7205C111.624 44.3165 108.172 45.7465 104.5 45.7465C100.828 45.7465 97.3762 44.3165 94.7795 41.7205C92.1835 39.1238 90.7535 35.672 90.7535 32C90.7535 27.932 92.53 24.2717 95.3467 21.7523C93.1717 24.1848 91.848 27.3938 91.848 30.9055C91.848 34.5775 93.278 38.0293 95.8742 40.6258C98.4707 43.222 101.922 44.652 105.594 44.652C109.007 44.652 112.229 43.4163 114.752 41.1578Z" fill="#FFC250"/>
<path d="M111.83 35.3353C111.83 33.5238 110.897 31.9268 109.488 30.9963C110.136 30.1995 110.525 29.1848 110.525 28.0803C110.525 25.798 108.865 23.8974 106.689 23.52V21.6982C106.689 21.1648 106.257 20.7324 105.723 20.7324C105.19 20.7324 104.757 21.1648 104.757 21.6982V23.4506H102.955V21.7626C102.955 21.2292 102.522 20.7968 101.989 20.7968C101.455 20.7968 101.023 21.2292 101.023 21.7626V23.4506H99.156C98.4447 23.4506 97.8682 24.0271 97.8682 24.7383C97.8682 25.4495 98.4447 26.026 99.156 26.026H100.39V38.002H99.156C98.4447 38.002 97.8682 38.5785 97.8682 39.2895C97.8682 40.0008 98.4447 40.5773 99.156 40.5773H101.023V42.3663C101.023 42.8995 101.455 43.332 101.989 43.332C102.522 43.332 102.955 42.8995 102.955 42.3663V40.5775L104.757 40.58V42.3018C104.757 42.8353 105.19 43.2675 105.723 43.2675C106.257 43.2675 106.689 42.8353 106.689 42.3018V40.5308C109.529 40.5003 111.83 38.1818 111.83 35.3353ZM105.896 26.026C107.029 26.026 107.95 26.9475 107.95 28.0803C107.95 29.2128 107.029 30.1343 105.896 30.1343C105.588 30.1343 102.965 30.1383 102.965 30.1383V26.026H105.896ZM106.633 37.9568C105.967 37.9568 104.2 37.9635 102.965 37.9685V32.719C103.402 32.7173 106.633 32.7138 106.633 32.7138C108.078 32.7138 109.254 33.8898 109.254 35.3353C109.254 36.7808 108.078 37.9568 106.633 37.9568Z" fill="white"/>
</svg>
