<svg width="96" height="48" viewBox="0 0 96 48" fill="none" xmlns="http://www.w3.org/2000/svg">
<path d="M8.838 27.09C7.98 27.09 7.308 26.883 6.822 26.469C6.342 26.049 6.087 25.443 6.057 24.651C6.051 24.489 6.048 24.225 6.048 23.859C6.048 23.487 6.051 23.217 6.057 23.049C6.087 22.269 6.348 21.669 6.84 21.249C7.332 20.823 7.998 20.61 8.838 20.61C9.366 20.61 9.84 20.7 10.26 20.88C10.68 21.054 11.01 21.306 11.25 21.636C11.496 21.96 11.622 22.341 11.628 22.779V22.797C11.628 22.845 11.607 22.887 11.565 22.923C11.529 22.953 11.487 22.968 11.439 22.968H10.224C10.146 22.968 10.086 22.953 10.044 22.923C10.002 22.887 9.966 22.824 9.936 22.734C9.852 22.428 9.72 22.215 9.54 22.095C9.36 21.969 9.123 21.906 8.829 21.906C8.121 21.906 7.755 22.302 7.731 23.094C7.725 23.256 7.722 23.505 7.722 23.841C7.722 24.177 7.725 24.432 7.731 24.606C7.755 25.398 8.121 25.794 8.829 25.794C9.123 25.794 9.363 25.731 9.549 25.605C9.735 25.473 9.864 25.26 9.936 24.966C9.96 24.876 9.993 24.816 10.035 24.786C10.077 24.75 10.14 24.732 10.224 24.732H11.439C11.493 24.732 11.538 24.75 11.574 24.786C11.616 24.822 11.634 24.867 11.628 24.921C11.622 25.359 11.496 25.743 11.25 26.073C11.01 26.397 10.68 26.649 10.26 26.829C9.84 27.003 9.366 27.09 8.838 27.09ZM12.7003 27C12.6343 27 12.5803 26.979 12.5383 26.937C12.4963 26.895 12.4753 26.841 12.4753 26.775V22.545C12.4753 22.479 12.4963 22.425 12.5383 22.383C12.5803 22.341 12.6343 22.32 12.7003 22.32H13.7353C13.8013 22.32 13.8553 22.344 13.8973 22.392C13.9453 22.434 13.9693 22.485 13.9693 22.545V22.905C14.2993 22.515 14.7433 22.32 15.3013 22.32H15.6973C15.7633 22.32 15.8173 22.341 15.8593 22.383C15.9013 22.425 15.9223 22.479 15.9223 22.545V23.472C15.9223 23.532 15.9013 23.586 15.8593 23.634C15.8173 23.676 15.7633 23.697 15.6973 23.697H14.8243C14.5783 23.697 14.3863 23.766 14.2483 23.904C14.1163 24.036 14.0503 24.225 14.0503 24.471V26.775C14.0503 26.841 14.0263 26.895 13.9783 26.937C13.9363 26.979 13.8823 27 13.8163 27H12.7003ZM16.7783 21.645C16.7123 21.645 16.6583 21.624 16.6163 21.582C16.5743 21.54 16.5533 21.486 16.5533 21.42V20.61C16.5533 20.544 16.5743 20.49 16.6163 20.448C16.6583 20.406 16.7123 20.385 16.7783 20.385H17.8583C17.9243 20.385 17.9783 20.406 18.0203 20.448C18.0623 20.49 18.0833 20.544 18.0833 20.61V21.42C18.0833 21.486 18.0623 21.54 18.0203 21.582C17.9783 21.624 17.9243 21.645 17.8583 21.645H16.7783ZM16.7873 27C16.7213 27 16.6673 26.979 16.6253 26.937C16.5833 26.895 16.5623 26.841 16.5623 26.775V22.545C16.5623 22.479 16.5833 22.425 16.6253 22.383C16.6673 22.341 16.7213 22.32 16.7873 22.32H17.8493C17.9153 22.32 17.9693 22.341 18.0113 22.383C18.0533 22.425 18.0743 22.479 18.0743 22.545V26.775C18.0743 26.835 18.0533 26.889 18.0113 26.937C17.9693 26.979 17.9153 27 17.8493 27H16.7873ZM19.3624 28.71C19.3024 28.71 19.2484 28.689 19.2004 28.647C19.1584 28.605 19.1374 28.551 19.1374 28.485V22.545C19.1374 22.479 19.1584 22.425 19.2004 22.383C19.2484 22.341 19.3024 22.32 19.3624 22.32H20.3794C20.4454 22.32 20.4994 22.341 20.5414 22.383C20.5834 22.425 20.6044 22.479 20.6044 22.545V22.869C20.9284 22.443 21.3934 22.23 21.9994 22.23C22.5874 22.23 23.0464 22.413 23.3764 22.779C23.7064 23.145 23.8864 23.661 23.9164 24.327C23.9224 24.405 23.9254 24.516 23.9254 24.66C23.9254 24.804 23.9224 24.915 23.9164 24.993C23.8924 25.641 23.7124 26.154 23.3764 26.532C23.0404 26.904 22.5814 27.09 21.9994 27.09C21.4114 27.09 20.9734 26.889 20.6854 26.487V28.485C20.6854 28.551 20.6644 28.605 20.6224 28.647C20.5804 28.689 20.5264 28.71 20.4604 28.71H19.3624ZM21.5134 25.884C21.7954 25.884 21.9964 25.8 22.1164 25.632C22.2424 25.464 22.3144 25.233 22.3324 24.939C22.3444 24.819 22.3504 24.726 22.3504 24.66C22.3504 24.594 22.3444 24.501 22.3324 24.381C22.3144 24.087 22.2424 23.856 22.1164 23.688C21.9964 23.52 21.7954 23.436 21.5134 23.436C21.2374 23.436 21.0334 23.523 20.9014 23.697C20.7754 23.865 20.7034 24.084 20.6854 24.354L20.6764 24.687L20.6854 25.029C20.6974 25.275 20.7724 25.479 20.9104 25.641C21.0484 25.803 21.2494 25.884 21.5134 25.884ZM27.1828 27C25.9408 27 25.3198 26.409 25.3198 25.227V23.499H24.6178C24.5518 23.499 24.4948 23.478 24.4468 23.436C24.4048 23.394 24.3838 23.34 24.3838 23.274V22.545C24.3838 22.479 24.4048 22.425 24.4468 22.383C24.4948 22.341 24.5518 22.32 24.6178 22.32H25.3198V20.835C25.3198 20.769 25.3408 20.715 25.3828 20.673C25.4308 20.631 25.4848 20.61 25.5448 20.61H26.5888C26.6548 20.61 26.7088 20.631 26.7508 20.673C26.7928 20.715 26.8138 20.769 26.8138 20.835V22.32H27.9388C28.0048 22.32 28.0588 22.341 28.1008 22.383C28.1488 22.425 28.1728 22.479 28.1728 22.545V23.274C28.1728 23.34 28.1488 23.394 28.1008 23.436C28.0588 23.478 28.0048 23.499 27.9388 23.499H26.8138V25.101C26.8138 25.545 26.9848 25.767 27.3268 25.767H28.0198C28.0858 25.767 28.1398 25.788 28.1818 25.83C28.2238 25.872 28.2448 25.926 28.2448 25.992V26.775C28.2448 26.835 28.2238 26.889 28.1818 26.937C28.1398 26.979 28.0858 27 28.0198 27H27.1828ZM31.2039 27.09C30.4599 27.09 29.8869 26.913 29.4849 26.559C29.0829 26.205 28.8639 25.707 28.8279 25.065C28.8219 24.987 28.8189 24.852 28.8189 24.66C28.8189 24.468 28.8219 24.333 28.8279 24.255C28.8639 23.619 29.0889 23.124 29.5029 22.77C29.9169 22.41 30.4839 22.23 31.2039 22.23C31.9299 22.23 32.4999 22.41 32.9139 22.77C33.3279 23.124 33.5529 23.619 33.5889 24.255C33.5949 24.333 33.5979 24.468 33.5979 24.66C33.5979 24.852 33.5949 24.987 33.5889 25.065C33.5529 25.707 33.3339 26.205 32.9319 26.559C32.5299 26.913 31.9539 27.09 31.2039 27.09ZM31.2039 25.992C31.4679 25.992 31.6629 25.914 31.7889 25.758C31.9149 25.596 31.9869 25.35 32.0049 25.02C32.0109 24.96 32.0139 24.84 32.0139 24.66C32.0139 24.48 32.0109 24.36 32.0049 24.3C31.9869 23.976 31.9119 23.733 31.7799 23.571C31.6539 23.409 31.4619 23.328 31.2039 23.328C30.7059 23.328 30.4419 23.652 30.4119 24.3L30.4029 24.66L30.4119 25.02C30.4239 25.35 30.4929 25.596 30.6189 25.758C30.7509 25.914 30.9459 25.992 31.2039 25.992ZM36.732 27C36.672 27 36.618 26.979 36.57 26.937C36.528 26.889 36.507 26.835 36.507 26.775V20.925C36.507 20.859 36.528 20.805 36.57 20.763C36.618 20.721 36.672 20.7 36.732 20.7H37.938C38.004 20.7 38.058 20.721 38.1 20.763C38.148 20.805 38.172 20.859 38.172 20.925V26.775C38.172 26.841 38.148 26.895 38.1 26.937C38.058 26.979 38.004 27 37.938 27H36.732ZM39.5509 27C39.4849 27 39.4309 26.979 39.3889 26.937C39.3469 26.895 39.3259 26.841 39.3259 26.775V22.545C39.3259 22.479 39.3469 22.425 39.3889 22.383C39.4309 22.341 39.4849 22.32 39.5509 22.32H40.5859C40.6519 22.32 40.7059 22.341 40.7479 22.383C40.7959 22.425 40.8199 22.479 40.8199 22.545V22.887C40.9819 22.689 41.1889 22.53 41.4409 22.41C41.6989 22.29 41.9899 22.23 42.3139 22.23C42.8419 22.23 43.2709 22.41 43.6009 22.77C43.9309 23.124 44.0959 23.622 44.0959 24.264V26.775C44.0959 26.835 44.0749 26.889 44.0329 26.937C43.9909 26.979 43.9369 27 43.8709 27H42.7369C42.6769 27 42.6229 26.979 42.5749 26.937C42.5329 26.889 42.5119 26.835 42.5119 26.775V24.318C42.5119 24.036 42.4429 23.82 42.3049 23.67C42.1669 23.514 41.9689 23.436 41.7109 23.436C41.4589 23.436 41.2609 23.514 41.1169 23.67C40.9729 23.82 40.9009 24.036 40.9009 24.318V26.775C40.9009 26.835 40.8799 26.889 40.8379 26.937C40.7959 26.979 40.7419 27 40.6759 27H39.5509ZM46.8551 27.09C46.2671 27.09 45.8081 26.907 45.4781 26.541C45.1541 26.169 44.9771 25.647 44.9471 24.975L44.9381 24.66L44.9471 24.336C44.9711 23.688 45.1481 23.175 45.4781 22.797C45.8141 22.419 46.2731 22.23 46.8551 22.23C47.4011 22.23 47.8421 22.407 48.1781 22.761V20.835C48.1781 20.769 48.1991 20.715 48.2411 20.673C48.2831 20.631 48.3371 20.61 48.4031 20.61H49.5011C49.5671 20.61 49.6211 20.631 49.6631 20.673C49.7051 20.715 49.7261 20.769 49.7261 20.835V26.775C49.7261 26.835 49.7051 26.889 49.6631 26.937C49.6211 26.979 49.5671 27 49.5011 27H48.4841C48.4241 27 48.3701 26.979 48.3221 26.937C48.2801 26.889 48.2591 26.835 48.2591 26.775V26.487C47.9291 26.889 47.4611 27.09 46.8551 27.09ZM47.3501 25.884C47.6201 25.884 47.8211 25.8 47.9531 25.632C48.0851 25.458 48.1601 25.236 48.1781 24.966C48.1841 24.888 48.1871 24.774 48.1871 24.624C48.1871 24.48 48.1841 24.369 48.1781 24.291C48.1661 24.045 48.0911 23.841 47.9531 23.679C47.8151 23.517 47.6141 23.436 47.3501 23.436C47.0681 23.436 46.8641 23.52 46.7381 23.688C46.6181 23.856 46.5491 24.087 46.5311 24.381C46.5251 24.441 46.5221 24.534 46.5221 24.66C46.5221 24.786 46.5251 24.879 46.5311 24.939C46.5491 25.233 46.6181 25.464 46.7381 25.632C46.8641 25.8 47.0681 25.884 47.3501 25.884ZM52.9468 27.09C52.2268 27.09 51.6598 26.895 51.2458 26.505C50.8318 26.115 50.6158 25.548 50.5978 24.804V24.489C50.6218 23.781 50.8408 23.229 51.2548 22.833C51.6748 22.431 52.2358 22.23 52.9378 22.23C53.4478 22.23 53.8768 22.335 54.2248 22.545C54.5788 22.749 54.8428 23.031 55.0168 23.391C55.1968 23.751 55.2868 24.165 55.2868 24.633V24.849C55.2868 24.909 55.2658 24.963 55.2238 25.011C55.1818 25.053 55.1278 25.074 55.0618 25.074H52.1818V25.137C52.1938 25.419 52.2628 25.647 52.3888 25.821C52.5148 25.995 52.6978 26.082 52.9378 26.082C53.0878 26.082 53.2108 26.052 53.3068 25.992C53.4028 25.926 53.4898 25.848 53.5678 25.758C53.6218 25.692 53.6638 25.653 53.6938 25.641C53.7298 25.623 53.7838 25.614 53.8558 25.614H54.9718C55.0258 25.614 55.0708 25.632 55.1068 25.668C55.1488 25.698 55.1698 25.74 55.1698 25.794C55.1698 25.95 55.0798 26.13 54.8998 26.334C54.7258 26.538 54.4708 26.715 54.1348 26.865C53.7988 27.015 53.4028 27.09 52.9468 27.09ZM53.7028 24.183V24.165C53.7028 23.871 53.6338 23.64 53.4958 23.472C53.3638 23.298 53.1778 23.211 52.9378 23.211C52.7038 23.211 52.5178 23.298 52.3798 23.472C52.2478 23.64 52.1818 23.871 52.1818 24.165V24.183H53.7028ZM55.7921 27C55.7381 27 55.6901 26.982 55.6481 26.946C55.6121 26.904 55.5941 26.853 55.5941 26.793C55.5941 26.745 55.6091 26.7 55.6391 26.658L57.1421 24.597L55.7741 22.662C55.7381 22.614 55.7201 22.566 55.7201 22.518C55.7201 22.464 55.7411 22.419 55.7831 22.383C55.8251 22.341 55.8731 22.32 55.9271 22.32H57.0251C57.1331 22.32 57.2201 22.371 57.2861 22.473L58.1231 23.625L58.9511 22.482C58.9871 22.434 59.0231 22.395 59.0591 22.365C59.0951 22.335 59.1491 22.32 59.2211 22.32H60.2741C60.3281 22.32 60.3731 22.341 60.4091 22.383C60.4511 22.419 60.4721 22.464 60.4721 22.518C60.4721 22.578 60.4571 22.626 60.4271 22.662L59.0231 24.597L60.5531 26.658C60.5831 26.7 60.5981 26.745 60.5981 26.793C60.5981 26.853 60.5771 26.904 60.5351 26.946C60.4991 26.982 60.4541 27 60.4001 27H59.2481C59.1461 27 59.0621 26.952 58.9961 26.856L58.0871 25.623L57.1691 26.856C57.1331 26.904 57.0971 26.94 57.0611 26.964C57.0251 26.988 56.9771 27 56.9171 27H55.7921Z" fill="#2F535A"/>
<path d="M78.375 36C85.0024 36 90.375 30.6274 90.375 24C90.375 17.3726 85.0024 12 78.375 12C71.7476 12 66.375 17.3726 66.375 24C66.375 30.6274 71.7476 36 78.375 36Z" fill="#3C6A73"/>
<path d="M78.8578 35.9902C78.6975 35.9966 78.5368 36 78.375 36C71.7476 36 66.375 30.6274 66.375 24C66.375 17.3727 71.7476 12 78.375 12C78.5368 12 78.6975 12.0034 78.8578 12.0097C72.4547 12.2627 67.3408 17.5345 67.3408 24C67.3408 30.4656 72.4547 35.7373 78.8578 35.9902Z" fill="#2F535A"/>
<path d="M78.375 34.3099C75.6212 34.3099 73.032 33.2374 71.0848 31.2902C69.1376 29.343 68.0651 26.7538 68.0651 24C68.0651 18.3151 72.6902 13.6901 78.375 13.6901C84.0598 13.6901 88.6849 18.3151 88.6849 24C88.6849 26.7538 87.6124 29.343 85.6652 31.2902C83.718 33.2374 81.1288 34.3099 78.375 34.3099Z" fill="#ECB880"/>
<path d="M78.375 34.3099C75.6212 34.3099 73.032 33.2374 71.0848 31.2902C69.1376 29.343 68.0651 26.7538 68.0651 24C68.0651 18.3151 72.6902 13.6901 78.375 13.6901C84.0598 13.6901 88.6849 18.3151 88.6849 24C88.6849 26.7538 87.6124 29.343 85.6652 31.2902C83.718 33.2374 81.1288 34.3099 78.375 34.3099Z" fill="#FFD064"/>
<path d="M86.0642 30.8683C85.9357 31.0121 85.803 31.1528 85.6654 31.2904C83.7178 33.2374 81.129 34.3099 78.375 34.3099C75.621 34.3099 73.0322 33.2374 71.0846 31.2904C69.1376 29.3428 68.0651 26.754 68.0651 24C68.0651 20.949 69.3975 18.2038 71.5101 16.3142C69.8788 18.1386 68.886 20.5453 68.886 23.1791C68.886 25.9331 69.9585 28.5219 71.9057 30.4693C73.8531 32.4165 76.4419 33.489 79.1959 33.489C81.7552 33.489 84.1721 32.5622 86.0642 30.8683Z" fill="#FFC250"/>
<path d="M83.8723 26.5014C83.8723 25.1428 83.1731 23.9451 82.1164 23.2472C82.6022 22.6496 82.8941 21.8886 82.8941 21.0602C82.8941 19.3485 81.6487 17.9231 80.0169 17.64V16.2737C80.0169 15.8736 79.6926 15.5493 79.2924 15.5493C78.8925 15.5493 78.5681 15.8736 78.5681 16.2737V17.588H77.2161V16.3219C77.2161 15.9219 76.8917 15.5976 76.4917 15.5976C76.0916 15.5976 75.7674 15.9219 75.7674 16.3219V17.588H74.367C73.8336 17.588 73.4012 18.0203 73.4012 18.5537C73.4012 19.0871 73.8336 19.5195 74.367 19.5195H75.2923V28.5015H74.367C73.8336 28.5015 73.4012 28.9339 73.4012 29.4671C73.4012 30.0006 73.8336 30.4329 74.367 30.4329H75.7674V31.7747C75.7674 32.1746 76.0916 32.499 76.4917 32.499C76.8917 32.499 77.2161 32.1746 77.2161 31.7747V30.4331L78.5681 30.435V31.7263C78.5681 32.1264 78.8925 32.4506 79.2924 32.4506C79.6926 32.4506 80.0169 32.1264 80.0169 31.7263V30.3981C82.1466 30.3752 83.8723 28.6363 83.8723 26.5014ZM79.422 19.5195C80.2716 19.5195 80.9627 20.2106 80.9627 21.0602C80.9627 21.9096 80.2716 22.6007 79.422 22.6007C79.1908 22.6007 77.2237 22.6037 77.2237 22.6037V19.5195H79.422ZM79.9746 28.4676C79.4753 28.4676 78.1498 28.4726 77.2237 28.4764V24.5393C77.5515 24.5379 79.9746 24.5353 79.9746 24.5353C81.0587 24.5353 81.9407 25.4173 81.9407 26.5014C81.9407 27.5856 81.0587 28.4676 79.9746 28.4676Z" fill="white"/>
</svg>
